<svg width="328" height="664" viewBox="0 0 328 664" fill="none" xmlns="http://www.w3.org/2000/svg">
<path fill-rule="evenodd" clip-rule="evenodd" d="M319.167 41.7814C319.167 19.8093 301.352 2 279.372 2H41.6672C19.6867 2 1.87207 19.8093 1.87207 41.7814V621.968C1.87207 643.94 19.6867 661.75 41.6672 661.75H279.372C301.352 661.75 319.167 643.94 319.167 621.968V41.7814Z" fill="#8C8C8C"/>
<g filter="url(#filter0_f_440_12868)">
<path fill-rule="evenodd" clip-rule="evenodd" d="M318.573 41.7811V621.968C318.573 643.606 301.025 661.16 279.371 661.16H41.6671C20.0136 661.16 2.46533 643.606 2.46533 621.968V41.7811C2.46533 20.1428 20.0136 2.58887 41.6671 2.58887H279.371C301.025 2.58887 318.573 20.1428 318.573 41.7811Z" fill="#EFF6F1"/>
</g>
<g filter="url(#filter1_f_440_12868)">
<path fill-rule="evenodd" clip-rule="evenodd" d="M318.586 41.7811V621.968C318.586 643.606 301.025 661.16 279.372 661.16H41.6675C20.014 661.16 2.45361 643.606 2.45361 621.968V41.7811C2.45361 20.1428 20.014 2.58887 41.6675 2.58887H279.372C301.025 2.58887 318.586 20.1428 318.586 41.7811Z" fill="#6D6D6D"/>
</g>
<g filter="url(#filter2_f_440_12868)">
<path fill-rule="evenodd" clip-rule="evenodd" d="M318.428 41.7813V621.968C318.428 643.528 300.941 661.004 279.372 661.004H41.6676C20.0989 661.004 2.61133 643.528 2.61133 621.968V41.7813C2.61133 20.2216 20.0989 2.74609 41.6676 2.74609H279.372C300.941 2.74609 318.428 20.2216 318.428 41.7813Z" fill="#595959"/>
</g>
<g filter="url(#filter3_f_440_12868)">
<path fill-rule="evenodd" clip-rule="evenodd" d="M317.835 41.782V621.969C317.835 643.195 300.614 660.415 279.372 660.415H41.668C20.4262 660.415 3.20508 643.195 3.20508 621.969V41.782C3.20508 20.5561 20.4262 3.33594 41.668 3.33594H279.372C300.614 3.33594 317.835 20.5561 317.835 41.782Z" fill="#FCFBFC"/>
</g>
<g filter="url(#filter4_f_440_12868)">
<path fill-rule="evenodd" clip-rule="evenodd" d="M317.835 41.782V621.969C317.835 643.195 300.614 660.415 279.372 660.415H41.668C20.4262 660.415 3.20508 643.195 3.20508 621.969V41.782C3.20508 20.5561 20.4262 3.33594 41.668 3.33594H279.372C300.614 3.33594 317.835 20.5561 317.835 41.782Z" fill="#535353"/>
</g>
<g filter="url(#filter5_f_440_12868)">
<path fill-rule="evenodd" clip-rule="evenodd" d="M317.253 41.7801V621.967C317.253 642.879 300.299 659.844 279.372 659.844H41.6673C20.7404 659.844 3.78564 642.879 3.78564 621.967V41.7801C3.78564 20.8684 20.7404 3.90332 41.6673 3.90332H279.372C300.299 3.90332 317.253 20.8684 317.253 41.7801Z" fill="#707070"/>
</g>
<g filter="url(#filter6_f_440_12868)">
<path fill-rule="evenodd" clip-rule="evenodd" d="M317.108 41.7811V621.968C317.108 642.801 300.214 659.688 279.371 659.688H41.6671C20.825 659.688 3.93066 642.801 3.93066 621.968V41.7811C3.93066 20.9479 20.825 4.06152 41.6671 4.06152H279.371C300.214 4.06152 317.108 20.9479 317.108 41.7811Z" fill="#828282"/>
</g>
<g filter="url(#filter7_f_440_12868)">
<path fill-rule="evenodd" clip-rule="evenodd" d="M316.514 41.78V621.967C316.514 642.466 299.886 659.098 279.371 659.098H41.667C21.1518 659.098 4.52393 642.466 4.52393 621.967V41.78C4.52393 21.2807 21.1518 4.64941 41.667 4.64941H279.371C299.886 4.64941 316.514 21.2807 316.514 41.78Z" fill="#B8B8B8"/>
</g>
<g filter="url(#filter8_f_440_12868)">
<path fill-rule="evenodd" clip-rule="evenodd" d="M316.514 41.78V621.967C316.514 642.466 299.886 659.098 279.371 659.098H41.667C21.1518 659.098 4.52393 642.466 4.52393 621.967V41.78C4.52393 21.2807 21.1518 4.64941 41.667 4.64941H279.371C299.886 4.64941 316.514 21.2807 316.514 41.78Z" fill="#848484"/>
</g>
<g filter="url(#filter9_f_440_12868)">
<path fill-rule="evenodd" clip-rule="evenodd" d="M315.17 41.7816V621.969C315.17 641.722 299.147 657.744 279.371 657.744H41.6668C21.8904 657.744 5.86816 641.722 5.86816 621.969V41.7816C5.86816 22.0284 21.8904 5.98633 41.6668 5.98633H279.371C299.147 5.98633 315.17 22.0284 315.17 41.7816Z" fill="#959595"/>
</g>
<g filter="url(#filter10_f_440_12868)">
<path fill-rule="evenodd" clip-rule="evenodd" d="M315.013 41.7808V621.968C315.013 641.643 299.063 657.586 279.371 657.586H41.6672C21.9756 657.586 6.02588 641.643 6.02588 621.968V41.7808C6.02588 22.1061 21.9756 6.16211 41.6672 6.16211H279.371C299.063 6.16211 315.013 22.1061 315.013 41.7808Z" fill="#797979"/>
</g>
<g filter="url(#filter11_f_440_12868)">
<path fill-rule="evenodd" clip-rule="evenodd" d="M314.588 41.7806V621.968C314.588 641.407 298.82 657.174 279.371 657.174H41.6666C22.2172 657.174 6.44922 641.407 6.44922 621.968V41.7806C6.44922 22.3416 22.2172 6.57422 41.6666 6.57422H279.371C298.82 6.57422 314.588 22.3416 314.588 41.7806Z" fill="#959595"/>
</g>
<g filter="url(#filter12_f_440_12868)">
<path fill-rule="evenodd" clip-rule="evenodd" d="M314.444 41.7806V621.968C314.444 641.328 298.736 657.017 279.372 657.017H41.6675C22.3028 657.017 6.60742 641.328 6.60742 621.968V41.7806C6.60742 22.4201 22.3028 6.73145 41.6675 6.73145H279.372C298.736 6.73145 314.444 22.4201 314.444 41.7806Z" fill="#838383"/>
</g>
<rect x="263.232" y="661.75" width="4.19841" height="6.6344" transform="rotate(180 263.232 661.75)" fill="#5B5B5B" style="mix-blend-mode:overlay"/>
<rect x="56.4849" y="661.75" width="4.19841" height="6.6344" transform="rotate(180 56.4849 661.75)" fill="#5B5B5B" style="mix-blend-mode:overlay"/>
<rect x="1.87207" y="604.694" width="4.19841" height="6.6344" transform="rotate(-90 1.87207 604.694)" fill="#5B5B5B" style="mix-blend-mode:overlay"/>
<rect x="1.87207" y="57.4883" width="4.19841" height="6.6344" transform="rotate(-90 1.87207 57.4883)" fill="#5B5B5B" style="mix-blend-mode:overlay"/>
<rect x="119.68" y="2" width="4.19841" height="6.6344" fill="#5B5B5B" style="mix-blend-mode:overlay"/>
<rect x="319.164" y="53.8018" width="4.19841" height="6.6344" transform="rotate(90 319.164 53.8018)" fill="#5B5B5B" style="mix-blend-mode:overlay"/>
<g filter="url(#filter13_f_440_12868)">
<path fill-rule="evenodd" clip-rule="evenodd" d="M313.85 41.7835V621.97C313.85 640.997 298.409 656.431 279.372 656.431H41.6673C22.6296 656.431 7.18848 640.997 7.18848 621.97V41.7835C7.18848 22.7568 22.6296 7.32324 41.6673 7.32324H279.372C298.409 7.32324 313.85 22.7568 313.85 41.7835Z" fill="#4D4D4D"/>
</g>
<g filter="url(#filter14_f_440_12868)">
<path fill-rule="evenodd" clip-rule="evenodd" d="M313.705 41.7826V621.97C313.705 640.918 298.337 656.292 279.372 656.292H41.6678C22.7028 656.292 7.33447 640.918 7.33447 621.97V41.7826C7.33447 22.8344 22.7028 7.45996 41.6678 7.45996H279.372C298.337 7.45996 313.705 22.8344 313.705 41.7826Z" fill="#3B3B3B"/>
</g>
<g filter="url(#filter15_f_440_12868)">
<path fill-rule="evenodd" clip-rule="evenodd" d="M313.257 41.7832V621.97C313.257 640.663 298.094 655.841 279.371 655.841H41.6671C22.9564 655.841 7.78174 640.663 7.78174 621.97V41.7832C7.78174 23.0706 22.9564 7.91211 41.6671 7.91211H279.371C298.094 7.91211 313.257 23.0706 313.257 41.7832Z" fill="#252525"/>
</g>
<g filter="url(#filter16_f_440_12868)">
<path fill-rule="evenodd" clip-rule="evenodd" d="M313.099 41.7834V621.97C313.099 640.585 297.997 655.684 279.371 655.684H41.6668C23.0409 655.684 7.93896 640.585 7.93896 621.97V41.7834C7.93896 23.1691 23.0409 8.06934 41.6668 8.06934H279.371C297.997 8.06934 313.099 23.1691 313.099 41.7834Z" fill="black"/>
</g>
<g filter="url(#filter17_f_440_12868)">
<path fill-rule="evenodd" clip-rule="evenodd" d="M312.53 41.7842V621.971C312.53 640.271 297.683 655.116 279.372 655.116H41.6674C23.3564 655.116 8.50879 640.271 8.50879 621.971V41.7842C8.50879 23.484 23.3564 8.63965 41.6674 8.63965H279.372C297.683 8.63965 312.53 23.484 312.53 41.7842Z" fill="#252525"/>
</g>
<g filter="url(#filter18_f_440_12868)">
<path fill-rule="evenodd" clip-rule="evenodd" d="M312.373 41.7825V621.97C312.373 640.191 297.598 654.957 279.372 654.957H41.6676C23.4413 654.957 8.6665 640.191 8.6665 621.97V41.7825C8.6665 23.5608 23.4413 8.79492 41.6676 8.79492H279.372C297.598 8.79492 312.373 23.5608 312.373 41.7825Z" fill="#2A2A2A"/>
</g>
<g filter="url(#filter19_f_440_12868)">
<path fill-rule="evenodd" clip-rule="evenodd" d="M311.912 41.784V621.971C311.912 639.937 297.343 654.507 279.371 654.507H41.6665C23.6945 654.507 9.12549 639.937 9.12549 621.971V41.784C9.12549 23.8177 23.6945 9.24805 41.6665 9.24805H279.371C297.343 9.24805 311.912 23.8177 311.912 41.784Z" fill="#353535"/>
</g>
<g filter="url(#filter20_f_440_12868)">
<path fill-rule="evenodd" clip-rule="evenodd" d="M311.779 41.7832V621.97C311.779 639.858 297.271 654.369 279.372 654.369H41.6674C23.7681 654.369 9.25977 639.858 9.25977 621.97V41.7832C9.25977 23.8953 23.7681 9.38477 41.6674 9.38477H279.372C297.271 9.38477 311.779 23.8953 311.779 41.7832Z" fill="#484848"/>
</g>
<g filter="url(#filter21_f_440_12868)">
<path fill-rule="evenodd" clip-rule="evenodd" d="M311.175 41.784V621.971C311.175 639.525 296.933 653.761 279.373 653.761H41.6683C24.1081 653.761 9.86621 639.525 9.86621 621.971V41.784C9.86621 24.2299 24.1081 9.99414 41.6683 9.99414H279.373C296.933 9.99414 311.175 24.2299 311.175 41.784Z" fill="#383838"/>
</g>
<g filter="url(#filter22_f_440_12868)">
<path fill-rule="evenodd" clip-rule="evenodd" d="M310.581 41.7827V621.97C310.581 639.19 296.617 653.17 279.372 653.17H41.6677C24.4224 653.17 10.459 639.19 10.459 621.97V41.7827C10.459 24.5625 24.4224 10.582 41.6677 10.582H279.372C296.617 10.582 310.581 24.5625 310.581 41.7827Z" fill="#2E2E2E"/>
</g>
<g filter="url(#filter23_f_440_12868)">
<path fill-rule="evenodd" clip-rule="evenodd" d="M310.447 41.784V621.971C310.447 639.132 296.544 653.034 279.371 653.034H41.667C24.4943 653.034 10.5913 639.132 10.5913 621.971V41.784C10.5913 24.6227 24.4943 10.7207 41.667 10.7207H279.371C296.544 10.7207 310.447 24.6227 310.447 41.784Z" fill="#212121"/>
</g>
<g filter="url(#filter24_f_440_12868)">
<path fill-rule="evenodd" clip-rule="evenodd" d="M309.866 41.7838V621.971C309.866 638.798 296.217 652.445 279.372 652.445H41.6673C24.8216 652.445 11.1729 638.798 11.1729 621.971V41.7838C11.1729 24.9562 24.8216 11.3096 41.6673 11.3096H279.372C296.217 11.3096 309.866 24.9562 309.866 41.7838Z" fill="#252525"/>
</g>
<g filter="url(#filter25_f_440_12868)">
<path fill-rule="evenodd" clip-rule="evenodd" d="M309.708 41.784V621.971C309.708 638.72 296.133 652.288 279.372 652.288H41.6674C24.9065 652.288 11.3306 638.72 11.3306 621.971V41.784C11.3306 25.035 24.9065 11.4668 41.6674 11.4668H279.372C296.133 11.4668 309.708 25.035 309.708 41.784Z" fill="#252527"/>
</g>
<g filter="url(#filter26_f_440_12868)">
<path fill-rule="evenodd" clip-rule="evenodd" d="M306.584 41.7839V621.971C306.584 636.992 294.4 649.166 279.371 649.166H41.6671C26.638 649.166 14.4546 636.992 14.4546 621.971V41.7839C14.4546 26.7628 26.638 14.5889 41.6671 14.5889H279.371C294.4 14.5889 306.584 26.7628 306.584 41.7839Z" fill="#1B1B1B"/>
</g>
<g filter="url(#filter27_f_440_12868)">
<path fill-rule="evenodd" clip-rule="evenodd" d="M306.438 41.7823V621.969C306.438 636.912 294.328 649.027 279.371 649.027H41.6671C26.7107 649.027 14.6001 636.912 14.6001 621.969V41.7823C14.6001 26.8397 26.7107 14.7246 41.6671 14.7246H279.371C294.328 14.7246 306.438 26.8397 306.438 41.7823Z" fill="#070707"/>
</g>
<g filter="url(#filter28_f_440_12868)">
<path fill-rule="evenodd" clip-rule="evenodd" d="M305.87 41.7831V621.97C305.87 636.598 294.013 648.458 279.372 648.458H41.6673C27.0257 648.458 15.1694 636.598 15.1694 621.97V41.7831C15.1694 27.1547 27.0257 15.2949 41.6673 15.2949H279.372C294.013 15.2949 305.87 27.1547 305.87 41.7831Z" fill="black"/>
</g>
<mask id="mask0_440_12868" style="mask-type:alpha" maskUnits="userSpaceOnUse" x="15" y="15" width="291" height="634">
<path fill-rule="evenodd" clip-rule="evenodd" d="M305.712 41.7822V621.969C305.712 636.499 293.916 648.281 279.372 648.281H41.6674C27.1228 648.281 15.3271 636.499 15.3271 621.969V41.7822C15.3271 27.252 27.1228 15.4707 41.6674 15.4707H279.372C293.916 15.4707 305.712 27.252 305.712 41.7822Z" fill="#16181E"/>
</mask>
<g mask="url(#mask0_440_12868)">
<rect width="291" height="633" transform="translate(15 15)" fill="#16181E"/>
</g>
<path d="M160.523 35.0623C164.681 35.0623 168.051 31.692 168.051 27.5346C168.051 23.3771 164.681 20.0068 160.523 20.0068C156.366 20.0068 152.996 23.3771 152.996 27.5346C152.996 31.692 156.366 35.0623 160.523 35.0623Z" fill="#252527"/>
<circle cx="160.518" cy="27.5329" r="7.28904" fill="black" stroke="black" stroke-width="0.173348"/>
<g filter="url(#filter29_f_440_12868)">
<circle cx="159.622" cy="26.3945" r="1.00578" fill="white"/>
</g>
<g filter="url(#filter30_f_440_12868)">
<circle cx="159.607" cy="26.4668" r="0.490233" fill="white"/>
</g>
<g filter="url(#filter31_f_440_12868)">
<ellipse cx="161.511" cy="28.3948" rx="0.612791" ry="0.781047" transform="rotate(22.5431 161.511 28.3948)" fill="#8F85AC"/>
</g>
<g filter="url(#filter32_f_440_12868)">
<path d="M160.738 28.0958C160 29.1686 159.704 29.1295 159.564 28.934C159.481 29.1016 159.38 29.2357 159.313 29.4369C159.229 29.6883 159.564 29.9398 159.816 30.0236C160.067 30.1074 161.241 29.6883 161.492 29.5207C161.744 29.3531 162.414 28.8502 162.498 28.5149C162.582 28.1797 162.666 26.5872 162.666 26.4195C162.666 26.2519 162.749 26.0843 162.666 25.8328C162.598 25.6317 162.246 25.6931 162.079 25.749C162.023 25.8887 161.878 26.2184 161.744 26.4195C161.576 26.671 161.66 26.7548 160.738 28.0958Z" fill="#494067"/>
</g>
<g style="mix-blend-mode:darken" opacity="0.5">
<g opacity="0.3" filter="url(#filter33_f_440_12868)">
<path d="M39.8304 660.52C18.2582 660.52 2.34605 642.687 5.40634 620.856C9.53735 641.303 14.2799 652.526 39.8304 660.52Z" fill="white"/>
</g>
<g opacity="0.4" filter="url(#filter34_f_440_12868)">
<path d="M41.9945 661.681C18.2341 663.085 2.09718 643.304 3.26452 618.11C9.7062 644.99 14.6762 655.045 41.9945 661.681Z" fill="black"/>
</g>
</g>
<g style="mix-blend-mode:darken" opacity="0.5">
<g opacity="0.3" filter="url(#filter35_f_440_12868)">
<path d="M313.665 616.863C318.389 638.002 304.549 657.506 282.671 659.295C301.63 650.762 311.494 643.654 313.665 616.863Z" fill="white"/>
</g>
<g opacity="0.4" filter="url(#filter36_f_440_12868)">
<path d="M316.879 613.059C321.611 638.836 305.229 660.144 282.015 661.247C309.635 650.587 314.031 641.308 316.879 613.059Z" fill="black"/>
</g>
</g>
<g style="mix-blend-mode:darken" opacity="0.5">
<g opacity="0.5" filter="url(#filter37_f_440_12868)">
<path d="M35.8188 3.7814C17.4799 7.17683 6.183 17.806 5.30273 37.4404C10.7316 18.3965 11.4649 13.5248 35.8188 3.7814Z" fill="white"/>
</g>
<g opacity="0.4" filter="url(#filter38_f_440_12868)">
<path d="M40.2576 2.74814C16.0508 3.33865 0.0232899 23.416 2.95753 45.1172C7.77068 16.0346 14.4225 10.5724 40.2576 2.74814Z" fill="#464646"/>
</g>
</g>
<g style="mix-blend-mode:darken" opacity="0.5">
<g opacity="0.5" filter="url(#filter39_f_440_12868)">
<path d="M282.737 3.9187C301.223 4.5092 318.681 20.8958 316.48 40.5303C312.614 22.0769 307.385 11.5953 282.737 3.9187Z" fill="white"/>
</g>
<g opacity="0.4" filter="url(#filter40_f_440_12868)">
<path d="M279.359 2.58944C303.566 3.17995 320.437 23.7001 317.503 45.4014C311.341 18.5332 304.446 11.0042 279.359 2.58944Z" fill="#464646"/>
</g>
</g>
<g filter="url(#filter41_i_440_12868)">
<mask id="mask1_440_12868" style="mask-type:alpha" maskUnits="userSpaceOnUse" x="319" y="237" width="4" height="47">
<path d="M319.167 237.632H320.738C321.578 237.632 322.259 238.313 322.259 239.153V282.267C322.259 283.107 321.578 283.788 320.738 283.788H319.167V237.632Z" fill="#D9D9D9"/>
</mask>
<g mask="url(#mask1_440_12868)">
<path d="M322.26 237.632H321.979V283.788H322.26V237.632Z" fill="#898989"/>
<path d="M321.978 237.632H321.697V283.788H321.978V237.632Z" fill="#919191"/>
<path d="M321.697 237.632H321.416V283.788H321.697V237.632Z" fill="#C9C9C9"/>
<path d="M321.416 237.632H321.135V283.788H321.416V237.632Z" fill="#ACACAC"/>
<path d="M321.135 237.632H320.854V283.788H321.135V237.632Z" fill="#C9C9C9"/>
<path d="M320.854 237.632H320.573V283.788H320.854V237.632Z" fill="#ADADAD"/>
<path d="M320.573 237.632H320.292V283.788H320.573V237.632Z" fill="#ADADAD"/>
<path d="M320.292 237.632H320.011V283.788H320.292V237.632Z" fill="#ADADAD"/>
<path d="M320.024 237.632H319.729V283.788H320.024V237.632Z" fill="#ACACAC"/>
<path d="M319.73 237.632H319.449V283.788H319.73V237.632Z" fill="#BFBFBF"/>
<path d="M319.449 237.632H319.167V283.788H319.449V237.632Z" fill="#A6A6A6"/>
</g>
</g>
<g filter="url(#filter42_i_440_12868)">
<mask id="mask2_440_12868" style="mask-type:alpha" maskUnits="userSpaceOnUse" x="319" y="114" width="4" height="85">
<path d="M319.167 114.16H320.738C321.578 114.16 322.259 114.841 322.259 115.681V197.091C322.259 197.931 321.578 198.612 320.738 198.612H319.167V114.16Z" fill="#D9D9D9"/>
</mask>
<g mask="url(#mask2_440_12868)">
<path d="M322.259 114.16H321.978V198.612H322.259V114.16Z" fill="#898989"/>
<path d="M321.978 114.16H321.697V198.612H321.978V114.16Z" fill="#919191"/>
<path d="M321.696 114.16H321.415V198.612H321.696V114.16Z" fill="#C9C9C9"/>
<path d="M321.415 114.16H321.134V198.612H321.415V114.16Z" fill="#ACACAC"/>
<path d="M321.135 114.16H320.854V198.612H321.135V114.16Z" fill="#C9C9C9"/>
<path d="M320.853 114.16H320.572V198.612H320.853V114.16Z" fill="#ADADAD"/>
<path d="M320.573 114.16H320.292V198.612H320.573V114.16Z" fill="#ADADAD"/>
<path d="M320.291 114.16H319.999V198.612H320.291V114.16Z" fill="#ADADAD"/>
<path d="M320.01 114.16H319.729V198.612H320.01V114.16Z" fill="#ACACAC"/>
<path d="M319.73 114.16H319.449V198.612H319.73V114.16Z" fill="#BFBFBF"/>
<path d="M319.449 114.16H319.167V198.612H319.449V114.16Z" fill="#A6A6A6"/>
</g>
</g>
<defs>
<filter id="filter0_f_440_12868" x="1.95838" y="2.08191" width="317.122" height="659.585" filterUnits="userSpaceOnUse" color-interpolation-filters="sRGB">
<feFlood flood-opacity="0" result="BackgroundImageFix"/>
<feBlend mode="normal" in="SourceGraphic" in2="BackgroundImageFix" result="shape"/>
<feGaussianBlur stdDeviation="0.253477" result="effect1_foregroundBlur_440_12868"/>
</filter>
<filter id="filter1_f_440_12868" x="1.94666" y="2.08191" width="317.146" height="659.585" filterUnits="userSpaceOnUse" color-interpolation-filters="sRGB">
<feFlood flood-opacity="0" result="BackgroundImageFix"/>
<feBlend mode="normal" in="SourceGraphic" in2="BackgroundImageFix" result="shape"/>
<feGaussianBlur stdDeviation="0.253477" result="effect1_foregroundBlur_440_12868"/>
</filter>
<filter id="filter2_f_440_12868" x="2.10437" y="2.23914" width="316.831" height="659.272" filterUnits="userSpaceOnUse" color-interpolation-filters="sRGB">
<feFlood flood-opacity="0" result="BackgroundImageFix"/>
<feBlend mode="normal" in="SourceGraphic" in2="BackgroundImageFix" result="shape"/>
<feGaussianBlur stdDeviation="0.253477" result="effect1_foregroundBlur_440_12868"/>
</filter>
<filter id="filter3_f_440_12868" x="2.69812" y="2.82898" width="315.644" height="658.093" filterUnits="userSpaceOnUse" color-interpolation-filters="sRGB">
<feFlood flood-opacity="0" result="BackgroundImageFix"/>
<feBlend mode="normal" in="SourceGraphic" in2="BackgroundImageFix" result="shape"/>
<feGaussianBlur stdDeviation="0.253477" result="effect1_foregroundBlur_440_12868"/>
</filter>
<filter id="filter4_f_440_12868" x="2.69812" y="2.82898" width="315.644" height="658.093" filterUnits="userSpaceOnUse" color-interpolation-filters="sRGB">
<feFlood flood-opacity="0" result="BackgroundImageFix"/>
<feBlend mode="normal" in="SourceGraphic" in2="BackgroundImageFix" result="shape"/>
<feGaussianBlur stdDeviation="0.253477" result="effect1_foregroundBlur_440_12868"/>
</filter>
<filter id="filter5_f_440_12868" x="3.27869" y="3.39637" width="314.482" height="656.954" filterUnits="userSpaceOnUse" color-interpolation-filters="sRGB">
<feFlood flood-opacity="0" result="BackgroundImageFix"/>
<feBlend mode="normal" in="SourceGraphic" in2="BackgroundImageFix" result="shape"/>
<feGaussianBlur stdDeviation="0.253477" result="effect1_foregroundBlur_440_12868"/>
</filter>
<filter id="filter6_f_440_12868" x="3.42371" y="3.55457" width="314.191" height="656.64" filterUnits="userSpaceOnUse" color-interpolation-filters="sRGB">
<feFlood flood-opacity="0" result="BackgroundImageFix"/>
<feBlend mode="normal" in="SourceGraphic" in2="BackgroundImageFix" result="shape"/>
<feGaussianBlur stdDeviation="0.253477" result="effect1_foregroundBlur_440_12868"/>
</filter>
<filter id="filter7_f_440_12868" x="4.01697" y="4.14246" width="313.004" height="655.462" filterUnits="userSpaceOnUse" color-interpolation-filters="sRGB">
<feFlood flood-opacity="0" result="BackgroundImageFix"/>
<feBlend mode="normal" in="SourceGraphic" in2="BackgroundImageFix" result="shape"/>
<feGaussianBlur stdDeviation="0.253477" result="effect1_foregroundBlur_440_12868"/>
</filter>
<filter id="filter8_f_440_12868" x="4.01697" y="4.14246" width="313.004" height="655.462" filterUnits="userSpaceOnUse" color-interpolation-filters="sRGB">
<feFlood flood-opacity="0" result="BackgroundImageFix"/>
<feBlend mode="normal" in="SourceGraphic" in2="BackgroundImageFix" result="shape"/>
<feGaussianBlur stdDeviation="0.253477" result="effect1_foregroundBlur_440_12868"/>
</filter>
<filter id="filter9_f_440_12868" x="5.36121" y="5.47937" width="310.316" height="652.772" filterUnits="userSpaceOnUse" color-interpolation-filters="sRGB">
<feFlood flood-opacity="0" result="BackgroundImageFix"/>
<feBlend mode="normal" in="SourceGraphic" in2="BackgroundImageFix" result="shape"/>
<feGaussianBlur stdDeviation="0.253477" result="effect1_foregroundBlur_440_12868"/>
</filter>
<filter id="filter10_f_440_12868" x="5.51892" y="5.65515" width="310.001" height="652.439" filterUnits="userSpaceOnUse" color-interpolation-filters="sRGB">
<feFlood flood-opacity="0" result="BackgroundImageFix"/>
<feBlend mode="normal" in="SourceGraphic" in2="BackgroundImageFix" result="shape"/>
<feGaussianBlur stdDeviation="0.253477" result="effect1_foregroundBlur_440_12868"/>
</filter>
<filter id="filter11_f_440_12868" x="5.94226" y="6.06726" width="309.153" height="651.614" filterUnits="userSpaceOnUse" color-interpolation-filters="sRGB">
<feFlood flood-opacity="0" result="BackgroundImageFix"/>
<feBlend mode="normal" in="SourceGraphic" in2="BackgroundImageFix" result="shape"/>
<feGaussianBlur stdDeviation="0.253477" result="effect1_foregroundBlur_440_12868"/>
</filter>
<filter id="filter12_f_440_12868" x="6.10047" y="6.22449" width="308.85" height="651.299" filterUnits="userSpaceOnUse" color-interpolation-filters="sRGB">
<feFlood flood-opacity="0" result="BackgroundImageFix"/>
<feBlend mode="normal" in="SourceGraphic" in2="BackgroundImageFix" result="shape"/>
<feGaussianBlur stdDeviation="0.253477" result="effect1_foregroundBlur_440_12868"/>
</filter>
<filter id="filter13_f_440_12868" x="6.68152" y="6.81629" width="307.676" height="650.121" filterUnits="userSpaceOnUse" color-interpolation-filters="sRGB">
<feFlood flood-opacity="0" result="BackgroundImageFix"/>
<feBlend mode="normal" in="SourceGraphic" in2="BackgroundImageFix" result="shape"/>
<feGaussianBlur stdDeviation="0.253477" result="effect1_foregroundBlur_440_12868"/>
</filter>
<filter id="filter14_f_440_12868" x="6.82752" y="6.95301" width="307.385" height="649.846" filterUnits="userSpaceOnUse" color-interpolation-filters="sRGB">
<feFlood flood-opacity="0" result="BackgroundImageFix"/>
<feBlend mode="normal" in="SourceGraphic" in2="BackgroundImageFix" result="shape"/>
<feGaussianBlur stdDeviation="0.253477" result="effect1_foregroundBlur_440_12868"/>
</filter>
<filter id="filter15_f_440_12868" x="7.27478" y="7.40515" width="306.489" height="648.943" filterUnits="userSpaceOnUse" color-interpolation-filters="sRGB">
<feFlood flood-opacity="0" result="BackgroundImageFix"/>
<feBlend mode="normal" in="SourceGraphic" in2="BackgroundImageFix" result="shape"/>
<feGaussianBlur stdDeviation="0.253477" result="effect1_foregroundBlur_440_12868"/>
</filter>
<filter id="filter16_f_440_12868" x="7.43201" y="7.56238" width="306.174" height="648.629" filterUnits="userSpaceOnUse" color-interpolation-filters="sRGB">
<feFlood flood-opacity="0" result="BackgroundImageFix"/>
<feBlend mode="normal" in="SourceGraphic" in2="BackgroundImageFix" result="shape"/>
<feGaussianBlur stdDeviation="0.253477" result="effect1_foregroundBlur_440_12868"/>
</filter>
<filter id="filter17_f_440_12868" x="8.00183" y="8.13269" width="305.035" height="647.49" filterUnits="userSpaceOnUse" color-interpolation-filters="sRGB">
<feFlood flood-opacity="0" result="BackgroundImageFix"/>
<feBlend mode="normal" in="SourceGraphic" in2="BackgroundImageFix" result="shape"/>
<feGaussianBlur stdDeviation="0.253477" result="effect1_foregroundBlur_440_12868"/>
</filter>
<filter id="filter18_f_440_12868" x="8.15955" y="8.28797" width="304.72" height="647.176" filterUnits="userSpaceOnUse" color-interpolation-filters="sRGB">
<feFlood flood-opacity="0" result="BackgroundImageFix"/>
<feBlend mode="normal" in="SourceGraphic" in2="BackgroundImageFix" result="shape"/>
<feGaussianBlur stdDeviation="0.253477" result="effect1_foregroundBlur_440_12868"/>
</filter>
<filter id="filter19_f_440_12868" x="8.61853" y="8.74109" width="303.8" height="646.273" filterUnits="userSpaceOnUse" color-interpolation-filters="sRGB">
<feFlood flood-opacity="0" result="BackgroundImageFix"/>
<feBlend mode="normal" in="SourceGraphic" in2="BackgroundImageFix" result="shape"/>
<feGaussianBlur stdDeviation="0.253477" result="effect1_foregroundBlur_440_12868"/>
</filter>
<filter id="filter20_f_440_12868" x="8.75281" y="8.87781" width="303.533" height="645.998" filterUnits="userSpaceOnUse" color-interpolation-filters="sRGB">
<feFlood flood-opacity="0" result="BackgroundImageFix"/>
<feBlend mode="normal" in="SourceGraphic" in2="BackgroundImageFix" result="shape"/>
<feGaussianBlur stdDeviation="0.253477" result="effect1_foregroundBlur_440_12868"/>
</filter>
<filter id="filter21_f_440_12868" x="9.35926" y="9.48719" width="302.323" height="644.781" filterUnits="userSpaceOnUse" color-interpolation-filters="sRGB">
<feFlood flood-opacity="0" result="BackgroundImageFix"/>
<feBlend mode="normal" in="SourceGraphic" in2="BackgroundImageFix" result="shape"/>
<feGaussianBlur stdDeviation="0.253477" result="effect1_foregroundBlur_440_12868"/>
</filter>
<filter id="filter22_f_440_12868" x="9.95203" y="10.0751" width="301.135" height="643.602" filterUnits="userSpaceOnUse" color-interpolation-filters="sRGB">
<feFlood flood-opacity="0" result="BackgroundImageFix"/>
<feBlend mode="normal" in="SourceGraphic" in2="BackgroundImageFix" result="shape"/>
<feGaussianBlur stdDeviation="0.253477" result="effect1_foregroundBlur_440_12868"/>
</filter>
<filter id="filter23_f_440_12868" x="10.0844" y="10.2137" width="300.869" height="643.327" filterUnits="userSpaceOnUse" color-interpolation-filters="sRGB">
<feFlood flood-opacity="0" result="BackgroundImageFix"/>
<feBlend mode="normal" in="SourceGraphic" in2="BackgroundImageFix" result="shape"/>
<feGaussianBlur stdDeviation="0.253477" result="effect1_foregroundBlur_440_12868"/>
</filter>
<filter id="filter24_f_440_12868" x="10.6659" y="10.8026" width="299.707" height="642.15" filterUnits="userSpaceOnUse" color-interpolation-filters="sRGB">
<feFlood flood-opacity="0" result="BackgroundImageFix"/>
<feBlend mode="normal" in="SourceGraphic" in2="BackgroundImageFix" result="shape"/>
<feGaussianBlur stdDeviation="0.253477" result="effect1_foregroundBlur_440_12868"/>
</filter>
<filter id="filter25_f_440_12868" x="10.8236" y="10.9598" width="299.392" height="641.835" filterUnits="userSpaceOnUse" color-interpolation-filters="sRGB">
<feFlood flood-opacity="0" result="BackgroundImageFix"/>
<feBlend mode="normal" in="SourceGraphic" in2="BackgroundImageFix" result="shape"/>
<feGaussianBlur stdDeviation="0.253477" result="effect1_foregroundBlur_440_12868"/>
</filter>
<filter id="filter26_f_440_12868" x="13.9476" y="14.0819" width="293.143" height="635.591" filterUnits="userSpaceOnUse" color-interpolation-filters="sRGB">
<feFlood flood-opacity="0" result="BackgroundImageFix"/>
<feBlend mode="normal" in="SourceGraphic" in2="BackgroundImageFix" result="shape"/>
<feGaussianBlur stdDeviation="0.253477" result="effect1_foregroundBlur_440_12868"/>
</filter>
<filter id="filter27_f_440_12868" x="14.0931" y="14.2177" width="292.852" height="635.317" filterUnits="userSpaceOnUse" color-interpolation-filters="sRGB">
<feFlood flood-opacity="0" result="BackgroundImageFix"/>
<feBlend mode="normal" in="SourceGraphic" in2="BackgroundImageFix" result="shape"/>
<feGaussianBlur stdDeviation="0.253477" result="effect1_foregroundBlur_440_12868"/>
</filter>
<filter id="filter28_f_440_12868" x="14.6625" y="14.788" width="291.714" height="634.177" filterUnits="userSpaceOnUse" color-interpolation-filters="sRGB">
<feFlood flood-opacity="0" result="BackgroundImageFix"/>
<feBlend mode="normal" in="SourceGraphic" in2="BackgroundImageFix" result="shape"/>
<feGaussianBlur stdDeviation="0.253477" result="effect1_foregroundBlur_440_12868"/>
</filter>
<filter id="filter29_f_440_12868" x="157.23" y="24.0019" width="4.78528" height="4.78528" filterUnits="userSpaceOnUse" color-interpolation-filters="sRGB">
<feFlood flood-opacity="0" result="BackgroundImageFix"/>
<feBlend mode="normal" in="SourceGraphic" in2="BackgroundImageFix" result="shape"/>
<feGaussianBlur stdDeviation="0.693391" result="effect1_foregroundBlur_440_12868"/>
</filter>
<filter id="filter30_f_440_12868" x="158.61" y="25.4696" width="1.99438" height="1.99438" filterUnits="userSpaceOnUse" color-interpolation-filters="sRGB">
<feFlood flood-opacity="0" result="BackgroundImageFix"/>
<feBlend mode="normal" in="SourceGraphic" in2="BackgroundImageFix" result="shape"/>
<feGaussianBlur stdDeviation="0.253477" result="effect1_foregroundBlur_440_12868"/>
</filter>
<filter id="filter31_f_440_12868" x="160.11" y="26.8753" width="2.80163" height="3.03844" filterUnits="userSpaceOnUse" color-interpolation-filters="sRGB">
<feFlood flood-opacity="0" result="BackgroundImageFix"/>
<feBlend mode="normal" in="SourceGraphic" in2="BackgroundImageFix" result="shape"/>
<feGaussianBlur stdDeviation="0.380216" result="effect1_foregroundBlur_440_12868"/>
</filter>
<filter id="filter32_f_440_12868" x="157.393" y="23.7875" width="7.21648" height="8.15349" filterUnits="userSpaceOnUse" color-interpolation-filters="sRGB">
<feFlood flood-opacity="0" result="BackgroundImageFix"/>
<feBlend mode="normal" in="SourceGraphic" in2="BackgroundImageFix" result="shape"/>
<feGaussianBlur stdDeviation="0.953412" result="effect1_foregroundBlur_440_12868"/>
</filter>
<filter id="filter33_f_440_12868" x="3.25447" y="619.082" width="38.3504" height="43.2118" filterUnits="userSpaceOnUse" color-interpolation-filters="sRGB">
<feFlood flood-opacity="0" result="BackgroundImageFix"/>
<feBlend mode="normal" in="SourceGraphic" in2="BackgroundImageFix" result="shape"/>
<feGaussianBlur stdDeviation="0.887171" result="effect1_foregroundBlur_440_12868"/>
</filter>
<filter id="filter34_f_440_12868" x="1.43074" y="616.336" width="42.3382" height="47.1893" filterUnits="userSpaceOnUse" color-interpolation-filters="sRGB">
<feFlood flood-opacity="0" result="BackgroundImageFix"/>
<feBlend mode="normal" in="SourceGraphic" in2="BackgroundImageFix" result="shape"/>
<feGaussianBlur stdDeviation="0.887171" result="effect1_foregroundBlur_440_12868"/>
</filter>
<filter id="filter35_f_440_12868" x="280.897" y="615.089" width="35.4667" height="45.9803" filterUnits="userSpaceOnUse" color-interpolation-filters="sRGB">
<feFlood flood-opacity="0" result="BackgroundImageFix"/>
<feBlend mode="normal" in="SourceGraphic" in2="BackgroundImageFix" result="shape"/>
<feGaussianBlur stdDeviation="0.887171" result="effect1_foregroundBlur_440_12868"/>
</filter>
<filter id="filter36_f_440_12868" x="280.241" y="611.285" width="39.2293" height="51.7362" filterUnits="userSpaceOnUse" color-interpolation-filters="sRGB">
<feFlood flood-opacity="0" result="BackgroundImageFix"/>
<feBlend mode="normal" in="SourceGraphic" in2="BackgroundImageFix" result="shape"/>
<feGaussianBlur stdDeviation="0.887171" result="effect1_foregroundBlur_440_12868"/>
</filter>
<filter id="filter37_f_440_12868" x="3.52839" y="2.00691" width="34.0648" height="37.2079" filterUnits="userSpaceOnUse" color-interpolation-filters="sRGB">
<feFlood flood-opacity="0" result="BackgroundImageFix"/>
<feBlend mode="normal" in="SourceGraphic" in2="BackgroundImageFix" result="shape"/>
<feGaussianBlur stdDeviation="0.887171" result="effect1_foregroundBlur_440_12868"/>
</filter>
<filter id="filter38_f_440_12868" x="0.837475" y="0.973705" width="41.1947" height="45.9178" filterUnits="userSpaceOnUse" color-interpolation-filters="sRGB">
<feFlood flood-opacity="0" result="BackgroundImageFix"/>
<feBlend mode="normal" in="SourceGraphic" in2="BackgroundImageFix" result="shape"/>
<feGaussianBlur stdDeviation="0.887171" result="effect1_foregroundBlur_440_12868"/>
</filter>
<filter id="filter39_f_440_12868" x="280.963" y="2.1446" width="37.4798" height="40.16" filterUnits="userSpaceOnUse" color-interpolation-filters="sRGB">
<feFlood flood-opacity="0" result="BackgroundImageFix"/>
<feBlend mode="normal" in="SourceGraphic" in2="BackgroundImageFix" result="shape"/>
<feGaussianBlur stdDeviation="0.887171" result="effect1_foregroundBlur_440_12868"/>
</filter>
<filter id="filter40_f_440_12868" x="277.585" y="0.815502" width="42.0243" height="46.3602" filterUnits="userSpaceOnUse" color-interpolation-filters="sRGB">
<feFlood flood-opacity="0" result="BackgroundImageFix"/>
<feBlend mode="normal" in="SourceGraphic" in2="BackgroundImageFix" result="shape"/>
<feGaussianBlur stdDeviation="0.887171" result="effect1_foregroundBlur_440_12868"/>
</filter>
<filter id="filter41_i_440_12868" x="319.167" y="236.618" width="4.10522" height="47.1702" filterUnits="userSpaceOnUse" color-interpolation-filters="sRGB">
<feFlood flood-opacity="0" result="BackgroundImageFix"/>
<feBlend mode="normal" in="SourceGraphic" in2="BackgroundImageFix" result="shape"/>
<feColorMatrix in="SourceAlpha" type="matrix" values="0 0 0 0 0 0 0 0 0 0 0 0 0 0 0 0 0 0 127 0" result="hardAlpha"/>
<feOffset dx="1.01391" dy="-1.01391"/>
<feGaussianBlur stdDeviation="0.506955"/>
<feComposite in2="hardAlpha" operator="arithmetic" k2="-1" k3="1"/>
<feColorMatrix type="matrix" values="0 0 0 0 0 0 0 0 0 0 0 0 0 0 0 0 0 0 0.35 0"/>
<feBlend mode="normal" in2="shape" result="effect1_innerShadow_440_12868"/>
</filter>
<filter id="filter42_i_440_12868" x="319.167" y="113.146" width="4.10522" height="85.4651" filterUnits="userSpaceOnUse" color-interpolation-filters="sRGB">
<feFlood flood-opacity="0" result="BackgroundImageFix"/>
<feBlend mode="normal" in="SourceGraphic" in2="BackgroundImageFix" result="shape"/>
<feColorMatrix in="SourceAlpha" type="matrix" values="0 0 0 0 0 0 0 0 0 0 0 0 0 0 0 0 0 0 127 0" result="hardAlpha"/>
<feOffset dx="1.01391" dy="-1.01391"/>
<feGaussianBlur stdDeviation="0.506955"/>
<feComposite in2="hardAlpha" operator="arithmetic" k2="-1" k3="1"/>
<feColorMatrix type="matrix" values="0 0 0 0 0 0 0 0 0 0 0 0 0 0 0 0 0 0 0.35 0"/>
<feBlend mode="normal" in2="shape" result="effect1_innerShadow_440_12868"/>
</filter>
</defs>
</svg>
