<svg width="240" height="221" viewBox="0 0 240 221" fill="none" xmlns="http://www.w3.org/2000/svg">
<g filter="url(#filter0_bdi_293_9366)">
<path d="M20.6953 183.497L111.527 19.6831C115.079 13.2768 124.285 13.2613 127.859 19.6557L219.412 183.47C222.893 189.7 218.39 197.376 211.253 197.376H119.668H28.869C21.7461 197.376 17.2412 189.727 20.6953 183.497Z" fill="#1E2028"/>
<path d="M21.1326 183.74L111.964 19.9256C115.326 13.862 124.04 13.8473 127.423 19.8996L218.975 183.714C222.271 189.61 218.008 196.876 211.253 196.876H119.668H28.869C22.1272 196.876 17.8633 189.636 21.1326 183.74Z" stroke="url(#paint0_radial_293_9366)" stroke-opacity="0.2"/>
</g>
<path d="M211.532 170.114L211.613 164.341L206.573 167.158L211.532 170.114ZM134.064 32.5032L208.901 166.43L209.774 165.942L134.937 32.0154L134.064 32.5032Z" fill="url(#paint1_linear_293_9366)"/>
<path d="M45.712 197.376L50.712 200.262L50.712 194.489L45.712 197.376ZM205.376 196.875L50.212 196.876L50.212 197.876L205.376 197.875L205.376 196.875Z" fill="url(#paint2_linear_293_9366)"/>
<path d="M104.829 32.3945L99.8812 35.3705L104.932 38.167L104.829 32.3945ZM29.0136 170.358L103.086 36.5735L102.211 36.0891L28.1387 169.874L29.0136 170.358Z" fill="url(#paint3_linear_293_9366)"/>
<g filter="url(#filter1_iiii_293_9366)">
<path d="M90.8918 157.652V163.494C90.892 163.686 90.835 163.875 90.728 164.035C90.621 164.195 90.4689 164.32 90.2909 164.394C90.1129 164.467 89.9171 164.487 89.7281 164.449C89.5392 164.411 89.3656 164.319 89.2295 164.182L87.275 162.227C84.8229 164.333 82.0519 165.441 79.2091 165.441C73.9981 165.441 70.8632 162.365 70.7318 162.235C70.549 162.053 70.4461 161.805 70.4457 161.547C70.4454 161.289 70.5476 161.041 70.73 160.858C70.9123 160.675 71.1599 160.572 71.4181 160.572C71.6763 160.572 71.9241 160.674 72.107 160.856C72.1508 160.899 74.8475 163.494 79.2091 163.494C82.0288 163.494 84.3106 162.173 85.8926 160.845L83.3881 158.341C83.2518 158.205 83.159 158.031 83.1213 157.842C83.0837 157.653 83.103 157.457 83.1767 157.28C83.2505 157.102 83.3754 156.949 83.5356 156.842C83.6959 156.735 83.8842 156.678 84.0769 156.679H89.9183C90.1765 156.679 90.4241 156.781 90.6067 156.964C90.7893 157.146 90.8918 157.394 90.8918 157.652ZM75.2406 150.236C75.3144 150.058 75.3338 149.862 75.2963 149.674C75.2589 149.485 75.1662 149.311 75.0301 149.175L72.5256 146.67C74.1076 145.343 76.3894 144.022 79.2091 144.022C83.584 144.022 86.2832 146.631 86.3112 146.661C86.4942 146.843 86.7422 146.945 87.0005 146.945C87.2589 146.944 87.5065 146.841 87.6888 146.658C87.8712 146.475 87.9734 146.227 87.9729 145.969C87.9724 145.711 87.8694 145.463 87.6864 145.281C87.5549 145.15 84.4201 142.075 79.2091 142.075C76.3663 142.075 73.5953 143.183 71.1431 145.289L69.1887 143.334C69.0526 143.197 68.879 143.104 68.6901 143.067C68.5011 143.029 68.3052 143.048 68.1273 143.122C67.9493 143.196 67.7972 143.321 67.6902 143.481C67.5832 143.641 67.5262 143.83 67.5264 144.022V149.864C67.5264 150.122 67.6289 150.37 67.8115 150.552C67.9941 150.735 68.2417 150.837 68.4999 150.837H74.3413C74.5338 150.837 74.7221 150.78 74.8821 150.673C75.0422 150.566 75.167 150.414 75.2406 150.236Z" fill="url(#paint4_linear_293_9366)"/>
</g>
<path d="M75.2406 150.236C75.3144 150.058 75.3338 149.862 75.2963 149.674C75.2589 149.485 75.1662 149.311 75.0301 149.175L75.2406 150.236ZM75.2406 150.236C75.167 150.414 75.0422 150.566 74.8821 150.673M75.2406 150.236L74.8821 150.673M74.8821 150.673C74.7221 150.78 74.5338 150.837 74.3413 150.837L74.8821 150.673ZM90.5413 163.494L90.5413 163.494C90.5414 163.617 90.505 163.738 90.4365 163.84C90.368 163.943 90.2707 164.023 90.1568 164.07C90.0429 164.117 89.9175 164.129 89.7966 164.105C89.6756 164.081 89.5646 164.022 89.4774 163.935L89.4774 163.935L87.523 161.979L87.2932 161.749L87.0467 161.961C84.6485 164.021 81.9563 165.09 79.2091 165.09C74.1436 165.09 71.0951 162.102 70.9789 161.987C70.8621 161.87 70.7964 161.712 70.7962 161.547C70.796 161.381 70.8614 161.223 70.9781 161.106C71.0949 160.989 71.2533 160.923 71.4186 160.923C71.5838 160.922 71.7424 160.988 71.8595 161.105L71.8595 161.105L71.8627 161.108C71.9292 161.172 74.7104 163.844 79.2091 163.844C82.1417 163.844 84.5009 162.471 86.1179 161.114L86.4109 160.868L86.1404 160.598L83.6359 158.093L83.6358 158.093C83.5486 158.006 83.4891 157.895 83.4651 157.774C83.441 157.653 83.4533 157.528 83.5005 157.414C83.5477 157.3 83.6277 157.202 83.7302 157.134C83.8328 157.065 83.9533 157.029 84.0766 157.029H84.0769H89.9183C90.0835 157.029 90.242 157.095 90.3589 157.212C90.4757 157.328 90.5413 157.487 90.5413 157.652L90.5413 163.494ZM74.9169 150.102L74.9168 150.102C74.8697 150.216 74.7898 150.313 74.6874 150.382C74.5849 150.45 74.4645 150.487 74.3413 150.487C74.3413 150.487 74.3412 150.487 74.3412 150.487H68.4999C68.3347 150.487 68.1762 150.421 68.0593 150.304C67.9425 150.187 67.8768 150.029 67.8768 149.864L67.8768 144.022L67.8768 144.022C67.8768 143.899 67.9132 143.778 67.9817 143.676C68.0502 143.573 68.1475 143.493 68.2614 143.446C68.3753 143.399 68.5007 143.386 68.6216 143.41C68.7425 143.435 68.8536 143.494 68.9408 143.581L68.9408 143.581L70.8952 145.537L71.125 145.767L71.3715 145.555C73.7697 143.495 76.4619 142.426 79.2091 142.426C84.2734 142.426 87.3217 145.413 87.4392 145.529C87.5562 145.646 87.6221 145.804 87.6224 145.97C87.6227 146.135 87.5573 146.294 87.4405 146.411C87.3238 146.528 87.1653 146.594 86.9999 146.594C86.8345 146.595 86.6758 146.529 86.5586 146.412L86.5586 146.412C86.4057 146.262 83.6402 143.672 79.2091 143.672C76.2765 143.672 73.9173 145.045 72.3003 146.402L72.0073 146.648L72.2778 146.918L74.7822 149.423C74.8693 149.51 74.9286 149.621 74.9525 149.742C74.9765 149.863 74.9641 149.988 74.9169 150.102Z" stroke="url(#paint5_radial_293_9366)" stroke-opacity="0.2" stroke-width="0.700964"/>
<path d="M57.6496 181.335V173.48H60.3541C60.975 173.48 61.4837 173.584 61.8802 173.794C62.2842 174.003 62.5835 174.288 62.778 174.647C62.9725 174.998 63.0698 175.391 63.0698 175.825C63.0698 176.311 62.9388 176.753 62.677 177.149C62.4226 177.546 62.0224 177.83 61.4763 178.002L63.1483 181.335H61.768L60.2418 178.17H58.8391V181.335H57.6496ZM58.8391 177.273H60.2867C60.8254 177.273 61.2182 177.142 61.465 176.88C61.7194 176.618 61.8466 176.278 61.8466 175.859C61.8466 175.44 61.7231 175.107 61.4763 174.86C61.2294 174.606 60.8291 174.478 60.2755 174.478H58.8391V177.273ZM66.6959 181.47C66.1497 181.47 65.6634 181.35 65.237 181.111C64.8181 180.864 64.4889 180.523 64.2495 180.089C64.0101 179.655 63.8904 179.15 63.8904 178.574C63.8904 177.991 64.0063 177.478 64.2383 177.037C64.4777 176.596 64.8068 176.251 65.2258 176.005C65.6522 175.758 66.146 175.634 66.7071 175.634C67.2532 175.634 67.7283 175.758 68.1323 176.005C68.5362 176.244 68.8505 176.566 69.0749 176.97C69.2993 177.374 69.4116 177.819 69.4116 178.305C69.4116 178.38 69.4078 178.462 69.4003 178.552C69.4003 178.634 69.3966 178.728 69.3891 178.832H65.0575C65.0949 179.371 65.2707 179.783 65.5849 180.067C65.9066 180.344 66.2769 180.482 66.6959 180.482C67.0325 180.482 67.3131 180.407 67.5375 180.258C67.7694 180.101 67.9415 179.891 68.0537 179.629H69.2432C69.0936 180.153 68.7943 180.591 68.3455 180.942C67.9041 181.294 67.3542 181.47 66.6959 181.47ZM66.6959 176.611C66.2993 176.611 65.9477 176.73 65.641 176.97C65.3343 177.202 65.1472 177.553 65.0799 178.024H68.222C68.1996 177.591 68.0462 177.246 67.7619 176.992C67.4776 176.738 67.1223 176.611 66.6959 176.611ZM73.1819 181.47C72.6433 181.47 72.1682 181.342 71.7568 181.088C71.3453 180.834 71.0236 180.486 70.7917 180.044C70.5598 179.603 70.4438 179.102 70.4438 178.541C70.4438 177.98 70.5598 177.482 70.7917 177.048C71.0236 176.607 71.3453 176.263 71.7568 176.016C72.1757 175.761 72.6545 175.634 73.1932 175.634C73.6346 175.634 74.0198 175.72 74.349 175.892C74.6857 176.064 74.9475 176.308 75.1346 176.622V173.255H76.3241V181.335H75.258L75.1346 180.471C74.955 180.733 74.7081 180.965 74.3939 181.167C74.0797 181.369 73.6757 181.47 73.1819 181.47ZM73.3952 180.437C73.9039 180.437 74.3191 180.261 74.6408 179.91C74.97 179.558 75.1346 179.106 75.1346 178.552C75.1346 177.991 74.97 177.538 74.6408 177.194C74.3191 176.842 73.9039 176.667 73.3952 176.667C72.8864 176.667 72.4675 176.842 72.1383 177.194C71.8091 177.538 71.6445 177.991 71.6445 178.552C71.6445 178.919 71.7194 179.244 71.869 179.528C72.0186 179.813 72.2243 180.037 72.4862 180.202C72.7555 180.359 73.0585 180.437 73.3952 180.437ZM78.4972 174.714C78.2727 174.714 78.0857 174.647 77.9361 174.512C77.7939 174.37 77.7229 174.194 77.7229 173.985C77.7229 173.775 77.7939 173.603 77.9361 173.468C78.0857 173.326 78.2727 173.255 78.4972 173.255C78.7216 173.255 78.9049 173.326 79.0471 173.468C79.1967 173.603 79.2715 173.775 79.2715 173.985C79.2715 174.194 79.1967 174.37 79.0471 174.512C78.9049 174.647 78.7216 174.714 78.4972 174.714ZM77.9024 181.335V175.769H79.0919V181.335H77.9024ZM80.6622 181.335V175.769H81.7283L81.8293 176.824C82.0238 176.457 82.2931 176.169 82.6373 175.96C82.9889 175.743 83.4116 175.634 83.9054 175.634V176.88H83.5799C83.2507 176.88 82.9552 176.936 82.6934 177.048C82.439 177.153 82.2333 177.336 82.0762 177.598C81.9266 177.852 81.8517 178.208 81.8517 178.664V181.335H80.6622ZM87.3753 181.47C86.8292 181.47 86.3429 181.35 85.9164 181.111C85.4975 180.864 85.1683 180.523 84.9289 180.089C84.6895 179.655 84.5698 179.15 84.5698 178.574C84.5698 177.991 84.6858 177.478 84.9177 177.037C85.1571 176.596 85.4863 176.251 85.9052 176.005C86.3317 175.758 86.8254 175.634 87.3865 175.634C87.9326 175.634 88.4077 175.758 88.8117 176.005C89.2157 176.244 89.5299 176.566 89.7543 176.97C89.9788 177.374 90.091 177.819 90.091 178.305C90.091 178.38 90.0873 178.462 90.0798 178.552C90.0798 178.634 90.076 178.728 90.0686 178.832H85.7369C85.7743 179.371 85.9501 179.783 86.2643 180.067C86.586 180.344 86.9563 180.482 87.3753 180.482C87.712 180.482 87.9925 180.407 88.2169 180.258C88.4489 180.101 88.6209 179.891 88.7331 179.629H89.9227C89.773 180.153 89.4738 180.591 89.0249 180.942C88.5835 181.294 88.0336 181.47 87.3753 181.47ZM87.3753 176.611C86.9788 176.611 86.6272 176.73 86.3204 176.97C86.0137 177.202 85.8267 177.553 85.7593 178.024H88.9015C88.879 177.591 88.7257 177.246 88.4414 176.992C88.1571 176.738 87.8017 176.611 87.3753 176.611ZM93.9624 181.47C93.4162 181.47 92.9262 181.346 92.4923 181.099C92.0659 180.852 91.7292 180.512 91.4823 180.078C91.2429 179.637 91.1232 179.128 91.1232 178.552C91.1232 177.976 91.2429 177.471 91.4823 177.037C91.7292 176.596 92.0659 176.251 92.4923 176.005C92.9262 175.758 93.4162 175.634 93.9624 175.634C94.6507 175.634 95.2267 175.814 95.6906 176.173C96.1619 176.532 96.4649 177.018 96.5995 177.632H95.3539C95.2791 177.325 95.1145 177.086 94.8601 176.914C94.6058 176.741 94.3065 176.655 93.9624 176.655C93.6706 176.655 93.4013 176.73 93.1544 176.88C92.9075 177.022 92.7093 177.235 92.5596 177.52C92.41 177.796 92.3352 178.14 92.3352 178.552C92.3352 178.963 92.41 179.311 92.5596 179.596C92.7093 179.872 92.9075 180.086 93.1544 180.235C93.4013 180.385 93.6706 180.46 93.9624 180.46C94.3065 180.46 94.6058 180.374 94.8601 180.202C95.1145 180.029 95.2791 179.786 95.3539 179.472H96.5995C96.4723 180.071 96.1731 180.553 95.7018 180.92C95.2305 181.286 94.6507 181.47 93.9624 181.47ZM100.114 181.335C99.568 181.335 99.1341 181.204 98.8124 180.942C98.4907 180.673 98.3299 180.198 98.3299 179.517V176.768H97.376V175.769H98.3299L98.4758 174.355H99.5194V175.769H101.09V176.768H99.5194V179.517C99.5194 179.824 99.583 180.037 99.7102 180.157C99.8449 180.269 100.073 180.325 100.395 180.325H101.034V181.335H100.114Z" fill="#C5C6CA"/>
<g filter="url(#filter2_iiii_293_9366)">
<path d="M166.621 146.448L166.206 146.926C166.08 147.071 165.927 147.19 165.756 147.276C165.584 147.362 165.398 147.413 165.206 147.426C165.015 147.44 164.823 147.416 164.641 147.355C164.459 147.295 164.291 147.199 164.146 147.073C164.001 146.948 163.882 146.795 163.796 146.623C163.71 146.452 163.659 146.265 163.645 146.074C163.618 145.687 163.745 145.306 163.998 145.013L164.451 144.491C164.474 144.465 164.497 144.44 164.522 144.416C165.708 143.229 167.318 142.562 168.996 142.562C169.827 142.562 170.65 142.726 171.418 143.044C172.186 143.362 172.884 143.828 173.471 144.416C174.059 145.003 174.525 145.701 174.843 146.469C175.161 147.236 175.325 148.059 175.325 148.89C175.325 149.721 175.161 150.544 174.843 151.312C174.525 152.08 174.059 152.777 173.471 153.365C173.447 153.389 173.421 153.412 173.396 153.436L172.874 153.888C172.729 154.014 172.56 154.11 172.378 154.17C172.196 154.231 172.004 154.255 171.813 154.241C171.622 154.228 171.435 154.176 171.263 154.091C171.092 154.005 170.939 153.886 170.813 153.741C170.688 153.596 170.592 153.428 170.531 153.246C170.471 153.064 170.447 152.872 170.46 152.68C170.474 152.489 170.525 152.302 170.611 152.131C170.697 151.959 170.816 151.806 170.961 151.681L171.439 151.266C172.057 150.623 172.398 149.763 172.389 148.871C172.38 147.979 172.022 147.126 171.391 146.496C170.76 145.865 169.908 145.507 169.016 145.498C168.124 145.489 167.264 145.83 166.621 146.448ZM164.112 160.443C163.967 160.317 163.798 160.221 163.616 160.161C163.434 160.1 163.242 160.076 163.051 160.09C162.86 160.103 162.673 160.154 162.501 160.24C162.33 160.326 162.177 160.445 162.051 160.59L161.636 161.068C160.993 161.686 160.133 162.027 159.242 162.018C158.35 162.009 157.497 161.651 156.866 161.02C156.236 160.39 155.877 159.537 155.868 158.645C155.859 157.753 156.201 156.894 156.818 156.25L157.297 155.835C157.589 155.582 157.769 155.222 157.797 154.836C157.825 154.449 157.698 154.068 157.444 153.775C157.19 153.482 156.831 153.302 156.444 153.275C156.058 153.247 155.676 153.374 155.384 153.628L154.862 154.081C154.836 154.104 154.81 154.127 154.786 154.151C153.599 155.338 152.933 156.947 152.933 158.626C152.933 160.304 153.599 161.914 154.786 163.101C155.973 164.287 157.582 164.954 159.261 164.954C160.939 164.954 162.549 164.287 163.736 163.101C163.76 163.076 163.783 163.051 163.806 163.025L164.259 162.503C164.384 162.358 164.48 162.19 164.541 162.008C164.602 161.826 164.626 161.634 164.612 161.442C164.598 161.251 164.547 161.064 164.461 160.893C164.375 160.721 164.257 160.568 164.112 160.443ZM173.864 156.192H171.43C171.043 156.192 170.672 156.346 170.398 156.62C170.124 156.894 169.97 157.265 169.97 157.652C169.97 158.04 170.124 158.411 170.398 158.685C170.672 158.959 171.043 159.113 171.43 159.113H173.864C174.252 159.113 174.623 158.959 174.897 158.685C175.171 158.411 175.325 158.04 175.325 157.652C175.325 157.265 175.171 156.894 174.897 156.62C174.623 156.346 174.252 156.192 173.864 156.192ZM154.393 151.324H156.827C157.214 151.324 157.586 151.17 157.86 150.896C158.133 150.623 158.287 150.251 158.287 149.864C158.287 149.476 158.133 149.105 157.86 148.831C157.586 148.557 157.214 148.403 156.827 148.403H154.393C154.006 148.403 153.634 148.557 153.36 148.831C153.087 149.105 152.933 149.476 152.933 149.864C152.933 150.251 153.087 150.623 153.36 150.896C153.634 151.17 154.006 151.324 154.393 151.324ZM168.023 159.599C167.636 159.599 167.264 159.753 166.99 160.027C166.716 160.301 166.563 160.672 166.563 161.06V163.494C166.563 163.881 166.716 164.252 166.99 164.526C167.264 164.8 167.636 164.954 168.023 164.954C168.41 164.954 168.782 164.8 169.056 164.526C169.329 164.252 169.483 163.881 169.483 163.494V161.06C169.483 160.672 169.329 160.301 169.056 160.027C168.782 159.753 168.41 159.599 168.023 159.599ZM160.234 147.917C160.622 147.917 160.993 147.763 161.267 147.489C161.541 147.215 161.695 146.844 161.695 146.456V144.022C161.695 143.635 161.541 143.264 161.267 142.99C160.993 142.716 160.622 142.562 160.234 142.562C159.847 142.562 159.476 142.716 159.202 142.99C158.928 143.264 158.774 143.635 158.774 144.022V146.456C158.774 146.844 158.928 147.215 159.202 147.489C159.476 147.763 159.847 147.917 160.234 147.917Z" fill="url(#paint6_linear_293_9366)"/>
</g>
<path d="M166.378 146.195L166.367 146.206L166.356 146.218L165.941 146.696L165.941 146.697C165.846 146.807 165.729 146.897 165.599 146.962C165.469 147.027 165.327 147.066 165.181 147.077C165.036 147.087 164.89 147.069 164.752 147.023C164.613 146.977 164.485 146.904 164.375 146.808C164.265 146.713 164.175 146.597 164.11 146.466C164.044 146.336 164.005 146.194 163.995 146.049C163.974 145.755 164.07 145.465 164.263 145.243C164.263 145.243 164.263 145.243 164.263 145.243L164.713 144.723C164.736 144.698 164.753 144.68 164.77 144.663C165.891 143.542 167.411 142.912 168.996 142.912C169.781 142.912 170.559 143.067 171.284 143.368C172.009 143.668 172.668 144.108 173.223 144.663C173.778 145.218 174.219 145.877 174.519 146.603C174.82 147.328 174.974 148.105 174.974 148.89C174.974 149.675 174.82 150.453 174.519 151.178C174.219 151.903 173.778 152.562 173.223 153.117C173.207 153.134 173.189 153.15 173.163 153.173L172.644 153.623C172.644 153.623 172.644 153.623 172.644 153.623C172.534 153.719 172.406 153.792 172.268 153.838C172.129 153.884 171.983 153.902 171.838 153.892C171.693 153.881 171.551 153.842 171.42 153.777C171.29 153.712 171.174 153.622 171.078 153.511C170.983 153.401 170.91 153.273 170.864 153.135L170.531 153.246L170.864 153.135C170.818 152.997 170.799 152.851 170.81 152.705C170.82 152.56 170.859 152.418 170.924 152.288C170.99 152.157 171.08 152.041 171.19 151.946L171.19 151.945L171.669 151.53L171.681 151.52L171.692 151.509C172.373 150.799 172.749 149.851 172.739 148.867C172.729 147.884 172.334 146.943 171.639 146.248C170.943 145.552 170.003 145.157 169.019 145.147C168.036 145.138 167.087 145.514 166.378 146.195ZM163.882 160.708L163.882 160.708C163.992 160.803 164.083 160.919 164.148 161.05C164.213 161.18 164.252 161.322 164.262 161.467C164.273 161.613 164.254 161.759 164.208 161.897C164.162 162.035 164.09 162.163 163.994 162.273C163.994 162.273 163.994 162.273 163.994 162.273L163.544 162.793C163.521 162.818 163.504 162.836 163.488 162.853C162.367 163.974 160.846 164.604 159.261 164.604C157.675 164.604 156.155 163.974 155.034 162.853C153.913 161.732 153.283 160.211 153.283 158.626C153.283 157.04 153.913 155.52 155.034 154.399C155.05 154.382 155.069 154.366 155.094 154.343L155.613 153.893C155.613 153.893 155.613 153.893 155.613 153.893C155.836 153.7 156.126 153.603 156.419 153.624C156.713 153.645 156.986 153.782 157.179 154.005C157.372 154.227 157.468 154.517 157.447 154.811C157.426 155.104 157.29 155.378 157.067 155.571L157.067 155.571L156.589 155.986L156.577 155.996L156.566 156.008C155.884 156.717 155.508 157.665 155.518 158.649C155.528 159.632 155.923 160.573 156.618 161.268C157.314 161.964 158.254 162.359 159.238 162.369C160.222 162.379 161.17 162.002 161.879 161.321L161.891 161.31L161.901 161.298L162.316 160.82L162.316 160.819C162.412 160.709 162.528 160.619 162.658 160.554C162.789 160.489 162.931 160.45 163.076 160.439C163.221 160.429 163.367 160.447 163.506 160.493L163.616 160.161L163.506 160.493C163.644 160.539 163.772 160.612 163.882 160.708ZM171.43 156.542H173.864C174.159 156.542 174.441 156.659 174.649 156.867C174.857 157.076 174.974 157.358 174.974 157.652C174.974 157.947 174.857 158.229 174.649 158.437C174.441 158.645 174.159 158.762 173.864 158.762H171.43C171.136 158.762 170.854 158.645 170.646 158.437C170.437 158.229 170.32 157.947 170.32 157.652C170.32 157.358 170.437 157.076 170.646 156.867C170.854 156.659 171.136 156.542 171.43 156.542ZM156.827 150.974H154.393C154.099 150.974 153.816 150.857 153.608 150.649C153.4 150.44 153.283 150.158 153.283 149.864C153.283 149.569 153.4 149.287 153.608 149.079C153.816 148.871 154.099 148.754 154.393 148.754H156.827C157.121 148.754 157.404 148.871 157.612 149.079C157.82 149.287 157.937 149.569 157.937 149.864C157.937 150.158 157.82 150.44 157.612 150.649C157.404 150.857 157.121 150.974 156.827 150.974ZM167.238 160.275C167.446 160.067 167.729 159.95 168.023 159.95C168.317 159.95 168.6 160.067 168.808 160.275C169.016 160.483 169.133 160.765 169.133 161.06V163.494C169.133 163.788 169.016 164.07 168.808 164.278C168.6 164.487 168.317 164.604 168.023 164.604C167.729 164.604 167.446 164.487 167.238 164.278C167.03 164.07 166.913 163.788 166.913 163.494V161.06C166.913 160.765 167.03 160.483 167.238 160.275ZM161.019 147.241C160.811 147.449 160.529 147.566 160.234 147.566C159.94 147.566 159.658 147.449 159.45 147.241C159.241 147.033 159.125 146.751 159.125 146.456V144.022C159.125 143.728 159.241 143.446 159.45 143.238C159.658 143.03 159.94 142.913 160.234 142.913C160.529 142.913 160.811 143.03 161.019 143.238C161.227 143.446 161.344 143.728 161.344 144.022V146.456C161.344 146.751 161.227 147.033 161.019 147.241Z" stroke="url(#paint7_radial_293_9366)" stroke-opacity="0.2" stroke-width="0.700964"/>
<path d="M145.501 181.335V173.48H148.048C148.969 173.48 149.724 173.64 150.315 173.962C150.914 174.284 151.355 174.74 151.639 175.331C151.931 175.915 152.077 176.611 152.077 177.419C152.077 178.219 151.931 178.915 151.639 179.506C151.355 180.089 150.914 180.542 150.315 180.864C149.724 181.178 148.969 181.335 148.048 181.335H145.501ZM146.691 180.325H148.004C148.714 180.325 149.275 180.209 149.687 179.977C150.106 179.745 150.405 179.412 150.585 178.978C150.772 178.544 150.865 178.024 150.865 177.419C150.865 176.813 150.772 176.289 150.585 175.847C150.405 175.406 150.106 175.069 149.687 174.837C149.275 174.598 148.714 174.478 148.004 174.478H146.691V180.325ZM154.02 174.714C153.795 174.714 153.608 174.647 153.459 174.512C153.317 174.37 153.246 174.194 153.246 173.985C153.246 173.775 153.317 173.603 153.459 173.468C153.608 173.326 153.795 173.255 154.02 173.255C154.244 173.255 154.428 173.326 154.57 173.468C154.719 173.603 154.794 173.775 154.794 173.985C154.794 174.194 154.719 174.37 154.57 174.512C154.428 174.647 154.244 174.714 154.02 174.714ZM153.425 181.335V175.769H154.615V181.335H153.425ZM158.407 181.47C157.704 181.47 157.124 181.298 156.667 180.953C156.211 180.609 155.949 180.153 155.882 179.584H157.083C157.142 179.839 157.285 180.059 157.509 180.246C157.734 180.426 158.029 180.516 158.396 180.516C158.755 180.516 159.017 180.441 159.181 180.291C159.346 180.142 159.428 179.97 159.428 179.775C159.428 179.491 159.312 179.3 159.08 179.203C158.856 179.098 158.541 179.005 158.138 178.922C157.823 178.855 157.509 178.765 157.195 178.653C156.888 178.541 156.63 178.384 156.421 178.182C156.219 177.972 156.118 177.692 156.118 177.34C156.118 176.854 156.305 176.45 156.679 176.128C157.053 175.799 157.576 175.634 158.25 175.634C158.871 175.634 159.372 175.784 159.753 176.083C160.142 176.382 160.371 176.805 160.438 177.351H159.293C159.256 177.112 159.144 176.925 158.957 176.79C158.777 176.655 158.534 176.588 158.227 176.588C157.928 176.588 157.696 176.652 157.532 176.779C157.367 176.899 157.285 177.056 157.285 177.25C157.285 177.445 157.397 177.598 157.621 177.71C157.853 177.823 158.156 177.923 158.53 178.013C158.904 178.096 159.248 178.193 159.563 178.305C159.884 178.41 160.142 178.567 160.337 178.776C160.532 178.986 160.629 179.293 160.629 179.697C160.636 180.205 160.438 180.628 160.034 180.965C159.637 181.301 159.095 181.47 158.407 181.47ZM161.927 181.335V175.769H162.993L163.094 176.824C163.289 176.457 163.558 176.169 163.902 175.96C164.254 175.743 164.677 175.634 165.17 175.634V176.88H164.845C164.516 176.88 164.22 176.936 163.959 177.048C163.704 177.153 163.498 177.336 163.341 177.598C163.192 177.852 163.117 178.208 163.117 178.664V181.335H161.927ZM168.244 181.47C167.571 181.47 167.039 181.26 166.65 180.841C166.269 180.422 166.078 179.798 166.078 178.967V175.769H167.268V178.844C167.268 179.921 167.709 180.46 168.592 180.46C169.033 180.46 169.396 180.303 169.68 179.988C169.965 179.674 170.107 179.225 170.107 178.642V175.769H171.296V181.335H170.241L170.152 180.359C169.98 180.703 169.725 180.976 169.389 181.178C169.059 181.372 168.678 181.47 168.244 181.47ZM172.81 183.804V175.769H173.876L173.999 176.633C174.179 176.371 174.425 176.139 174.74 175.937C175.054 175.735 175.458 175.634 175.952 175.634C176.49 175.634 176.965 175.761 177.377 176.016C177.788 176.27 178.11 176.618 178.342 177.059C178.581 177.501 178.701 178.002 178.701 178.563C178.701 179.124 178.581 179.625 178.342 180.067C178.11 180.501 177.788 180.845 177.377 181.099C176.965 181.346 176.487 181.47 175.94 181.47C175.507 181.47 175.121 181.384 174.785 181.212C174.455 181.039 174.194 180.796 173.999 180.482V183.804H172.81ZM175.738 180.437C176.247 180.437 176.666 180.265 176.995 179.921C177.324 179.569 177.489 179.113 177.489 178.552C177.489 178.185 177.414 177.86 177.265 177.576C177.115 177.291 176.909 177.071 176.647 176.914C176.386 176.749 176.083 176.667 175.738 176.667C175.23 176.667 174.811 176.842 174.482 177.194C174.16 177.546 173.999 177.998 173.999 178.552C173.999 179.113 174.16 179.569 174.482 179.921C174.811 180.265 175.23 180.437 175.738 180.437ZM182.103 181.335C181.556 181.335 181.123 181.204 180.801 180.942C180.479 180.673 180.318 180.198 180.318 179.517V176.768H179.364V175.769H180.318L180.464 174.355H181.508V175.769H183.079V176.768H181.508V179.517C181.508 179.824 181.571 180.037 181.699 180.157C181.833 180.269 182.061 180.325 182.383 180.325H183.023V181.335H182.103Z" fill="#C5C6CA"/>
<g filter="url(#filter3_iiii_293_9366)">
<path d="M127.689 57.8175V53.4803C127.689 52.9639 127.484 52.4687 127.119 52.1035C126.754 51.7383 126.258 51.5332 125.742 51.5332H112.112C111.596 51.5332 111.1 51.7383 110.735 52.1035C110.37 52.4687 110.165 52.9639 110.165 53.4803V57.8613C110.166 58.1635 110.236 58.4614 110.371 58.7317C110.507 59.0019 110.703 59.2372 110.944 59.419L117.305 64.1895L110.944 68.9599C110.703 69.1418 110.507 69.377 110.371 69.6473C110.236 69.9176 110.166 70.2155 110.165 70.5176V74.8987C110.165 75.4151 110.37 75.9103 110.735 76.2755C111.1 76.6406 111.596 76.8458 112.112 76.8458H125.742C126.258 76.8458 126.754 76.6406 127.119 76.2755C127.484 75.9103 127.689 75.4151 127.689 74.8987V70.5615C127.688 70.2604 127.618 69.9637 127.484 69.6941C127.35 69.4246 127.156 69.1896 126.916 69.0074L120.542 64.1895L126.916 59.3716C127.156 59.1894 127.35 58.9544 127.484 58.6849C127.618 58.4153 127.688 58.1185 127.689 57.8175ZM125.742 70.5615V74.8987H112.112V70.5176L117.954 66.1366V69.0573C117.954 69.3155 118.056 69.5631 118.239 69.7457C118.421 69.9283 118.669 70.0309 118.927 70.0309C119.185 70.0309 119.433 69.9283 119.615 69.7457C119.798 69.5631 119.901 69.3155 119.901 69.0573V66.1464L125.742 70.5615ZM125.742 57.8175L125.04 58.3481H112.761L112.112 57.8613V53.4803H125.742V57.8175Z" fill="url(#paint8_linear_293_9366)"/>
</g>
<path d="M117.889 64.1895L117.515 64.4699L111.155 69.2399C111.155 69.24 111.155 69.24 111.154 69.2401C110.957 69.3893 110.796 69.5823 110.685 69.804C110.574 70.0258 110.516 70.2702 110.516 70.518V74.8987C110.516 75.3221 110.684 75.7282 110.983 76.0277C111.283 76.3271 111.689 76.4953 112.112 76.4953H125.742C126.165 76.4953 126.572 76.3271 126.871 76.0277C127.17 75.7282 127.339 75.3221 127.339 74.8987V70.5623C127.338 70.3151 127.281 70.0715 127.171 69.8502C127.061 69.6291 126.901 69.4363 126.705 69.2868C126.705 69.2867 126.704 69.2865 126.704 69.2864L120.331 64.4691L119.961 64.1895L120.331 63.9099L126.704 59.0926C126.704 59.0925 126.704 59.0924 126.705 59.0923C126.901 58.9428 127.061 58.7499 127.171 58.5288C127.281 58.3075 127.338 58.0639 127.339 57.8167V53.4803C127.339 53.0569 127.17 52.6508 126.871 52.3513C126.572 52.0519 126.165 51.8837 125.742 51.8837H112.112C111.689 51.8837 111.283 52.0519 110.983 52.3513C110.684 52.6508 110.516 53.0569 110.516 53.4803V57.8609C110.516 58.1088 110.574 58.3532 110.685 58.5749M117.889 64.1895L110.685 58.5749M117.889 64.1895L117.515 63.9091M117.889 64.1895L117.515 63.9091M110.685 58.5749C110.796 58.7966 110.957 58.9896 111.154 59.1388M110.685 58.5749L111.154 59.1388M111.154 59.1388C111.155 59.1389 111.155 59.139 111.155 59.1391M111.154 59.1388L111.155 59.1391M111.155 59.1391L117.515 63.9091M111.155 59.1391L117.515 63.9091M126.092 70.5615V70.387L125.953 70.2819L120.112 65.8668L119.55 65.4421V66.1464V69.0573C119.55 69.2226 119.485 69.381 119.368 69.4979C119.251 69.6147 119.092 69.6804 118.927 69.6804C118.762 69.6804 118.603 69.6147 118.487 69.4979C118.37 69.381 118.304 69.2226 118.304 69.0573V66.1366V65.4357L117.743 65.8562L111.902 70.2373L111.762 70.3424V70.5176V74.8987V75.2491H112.112H125.742H126.092V74.8987V70.5615ZM125.953 58.0972L126.092 57.992V57.8175V53.4803V53.1298H125.742H112.112H111.762V53.4803V57.8613V58.0365L111.902 58.1417L112.55 58.6285L112.644 58.6986H112.761H125.04H125.157L125.251 58.6278L125.953 58.0972Z" stroke="url(#paint9_radial_293_9366)" stroke-opacity="0.2" stroke-width="0.700964"/>
<path d="M104.869 91.7661V83.9108H107.416C108.336 83.9108 109.092 84.0716 109.683 84.3933C110.281 84.715 110.723 85.1714 111.007 85.7624C111.299 86.3459 111.445 87.0417 111.445 87.8497C111.445 88.6502 111.299 89.3459 111.007 89.9369C110.723 90.5205 110.281 90.9731 109.683 91.2948C109.092 91.609 108.336 91.7661 107.416 91.7661H104.869ZM106.058 90.7561H107.371C108.082 90.7561 108.643 90.6402 109.054 90.4083C109.473 90.1763 109.773 89.8434 109.952 89.4095C110.139 88.9756 110.233 88.4556 110.233 87.8497C110.233 87.2437 110.139 86.72 109.952 86.2786C109.773 85.8372 109.473 85.5005 109.054 85.2686C108.643 85.0292 108.082 84.9095 107.371 84.9095H106.058V90.7561ZM115.318 91.9008C114.772 91.9008 114.285 91.7811 113.859 91.5417C113.44 91.2948 113.111 90.9544 112.871 90.5205C112.632 90.0866 112.512 89.5816 112.512 89.0055C112.512 88.422 112.628 87.9095 112.86 87.4681C113.1 87.0267 113.429 86.6826 113.848 86.4357C114.274 86.1888 114.768 86.0654 115.329 86.0654C115.875 86.0654 116.35 86.1888 116.754 86.4357C117.158 86.6751 117.472 86.9968 117.697 87.4008C117.921 87.8048 118.033 88.2499 118.033 88.7362C118.033 88.811 118.03 88.8933 118.022 88.9831C118.022 89.0654 118.018 89.1589 118.011 89.2636H113.679C113.717 89.8023 113.893 90.2137 114.207 90.498C114.528 90.7748 114.899 90.9132 115.318 90.9132C115.654 90.9132 115.935 90.8384 116.159 90.6888C116.391 90.5317 116.563 90.3222 116.676 90.0604H117.865C117.715 90.5841 117.416 91.0217 116.967 91.3733C116.526 91.725 115.976 91.9008 115.318 91.9008ZM115.318 87.0417C114.921 87.0417 114.57 87.1614 114.263 87.4008C113.956 87.6327 113.769 87.9843 113.702 88.4556H116.844C116.821 88.0217 116.668 87.6776 116.384 87.4232C116.1 87.1689 115.744 87.0417 115.318 87.0417ZM119.268 91.7661V83.6863H120.457V91.7661H119.268ZM123.849 91.9008C123.378 91.9008 122.988 91.8222 122.682 91.6651C122.375 91.508 122.147 91.3023 121.997 91.0479C121.848 90.7861 121.773 90.5018 121.773 90.195C121.773 89.6564 121.982 89.23 122.401 88.9157C122.82 88.6015 123.419 88.4444 124.197 88.4444H125.656V88.3434C125.656 87.9095 125.536 87.5841 125.296 87.3671C125.065 87.1502 124.762 87.0417 124.387 87.0417C124.058 87.0417 123.77 87.124 123.523 87.2886C123.284 87.4457 123.138 87.6813 123.086 87.9956H121.896C121.934 87.5916 122.068 87.2474 122.3 86.9631C122.54 86.6714 122.839 86.4507 123.198 86.301C123.565 86.1439 123.965 86.0654 124.399 86.0654C125.177 86.0654 125.779 86.2711 126.205 86.6826C126.632 87.0866 126.845 87.6402 126.845 88.3434V91.7661H125.813L125.712 90.8123C125.555 91.119 125.326 91.3771 125.027 91.5866C124.728 91.796 124.335 91.9008 123.849 91.9008ZM124.084 90.9357C124.406 90.9357 124.676 90.8609 124.892 90.7113C125.117 90.5541 125.289 90.3484 125.409 90.094C125.536 89.8397 125.614 89.5591 125.644 89.2524H124.32C123.849 89.2524 123.512 89.3347 123.31 89.4993C123.116 89.6639 123.018 89.8696 123.018 90.1165C123.018 90.3709 123.112 90.5728 123.299 90.7225C123.493 90.8646 123.755 90.9357 124.084 90.9357ZM128.708 94.2349L130.043 91.306H129.718L127.518 86.2H128.809L130.514 90.3185L132.299 86.2H133.555L129.964 94.2349H128.708Z" fill="#C5C6CA"/>
<defs>
<filter id="filter0_bdi_293_9366" x="0.817396" y="0.0710146" width="238.488" height="219.891" filterUnits="userSpaceOnUse" color-interpolation-filters="sRGB">
<feFlood flood-opacity="0" result="BackgroundImageFix"/>
<feGaussianBlur in="BackgroundImageFix" stdDeviation="6.62021"/>
<feComposite in2="SourceAlpha" operator="in" result="effect1_backgroundBlur_293_9366"/>
<feColorMatrix in="SourceAlpha" type="matrix" values="0 0 0 0 0 0 0 0 0 0 0 0 0 0 0 0 0 0 127 0" result="hardAlpha"/>
<feOffset dy="3.89424"/>
<feGaussianBlur stdDeviation="9.34618"/>
<feComposite in2="hardAlpha" operator="out"/>
<feColorMatrix type="matrix" values="0 0 0 0 0.381146 0 0 0 0 0.427883 0 0 0 0 0.608154 0 0 0 0.15 0"/>
<feBlend mode="normal" in2="effect1_backgroundBlur_293_9366" result="effect2_dropShadow_293_9366"/>
<feBlend mode="normal" in="SourceGraphic" in2="effect2_dropShadow_293_9366" result="shape"/>
<feColorMatrix in="SourceAlpha" type="matrix" values="0 0 0 0 0 0 0 0 0 0 0 0 0 0 0 0 0 0 127 0" result="hardAlpha"/>
<feOffset dx="0.778849" dy="3.11539"/>
<feGaussianBlur stdDeviation="0.389424"/>
<feComposite in2="hardAlpha" operator="arithmetic" k2="-1" k3="1"/>
<feColorMatrix type="matrix" values="0 0 0 0 0.0470588 0 0 0 0 0.0627451 0 0 0 0 0.141176 0 0 0 0.5 0"/>
<feBlend mode="normal" in2="shape" result="effect3_innerShadow_293_9366"/>
</filter>
<filter id="filter1_iiii_293_9366" x="67.5264" y="140.907" width="23.3652" height="25.7018" filterUnits="userSpaceOnUse" color-interpolation-filters="sRGB">
<feFlood flood-opacity="0" result="BackgroundImageFix"/>
<feBlend mode="normal" in="SourceGraphic" in2="BackgroundImageFix" result="shape"/>
<feColorMatrix in="SourceAlpha" type="matrix" values="0 0 0 0 0 0 0 0 0 0 0 0 0 0 0 0 0 0 127 0" result="hardAlpha"/>
<feOffset dy="2.33655"/>
<feGaussianBlur stdDeviation="0.584137"/>
<feComposite in2="hardAlpha" operator="arithmetic" k2="-1" k3="1"/>
<feColorMatrix type="matrix" values="0 0 0 0 0.78638 0 0 0 0 0.830606 0 0 0 0 0.9854 0 0 0 0.1 0"/>
<feBlend mode="normal" in2="shape" result="effect1_innerShadow_293_9366"/>
<feColorMatrix in="SourceAlpha" type="matrix" values="0 0 0 0 0 0 0 0 0 0 0 0 0 0 0 0 0 0 127 0" result="hardAlpha"/>
<feOffset dy="-1.16827"/>
<feGaussianBlur stdDeviation="0.584137"/>
<feComposite in2="hardAlpha" operator="arithmetic" k2="-1" k3="1"/>
<feColorMatrix type="matrix" values="0 0 0 0 0.0636856 0 0 0 0 0.181279 0 0 0 0 0.592855 0 0 0 0.1 0"/>
<feBlend mode="normal" in2="effect1_innerShadow_293_9366" result="effect2_innerShadow_293_9366"/>
<feColorMatrix in="SourceAlpha" type="matrix" values="0 0 0 0 0 0 0 0 0 0 0 0 0 0 0 0 0 0 127 0" result="hardAlpha"/>
<feOffset dy="2.33655"/>
<feGaussianBlur stdDeviation="0.584137"/>
<feComposite in2="hardAlpha" operator="arithmetic" k2="-1" k3="1"/>
<feColorMatrix type="matrix" values="0 0 0 0 0.78638 0 0 0 0 0.830606 0 0 0 0 0.9854 0 0 0 0.1 0"/>
<feBlend mode="normal" in2="effect2_innerShadow_293_9366" result="effect3_innerShadow_293_9366"/>
<feColorMatrix in="SourceAlpha" type="matrix" values="0 0 0 0 0 0 0 0 0 0 0 0 0 0 0 0 0 0 127 0" result="hardAlpha"/>
<feOffset dy="-1.16827"/>
<feGaussianBlur stdDeviation="0.584137"/>
<feComposite in2="hardAlpha" operator="arithmetic" k2="-1" k3="1"/>
<feColorMatrix type="matrix" values="0 0 0 0 0.0636856 0 0 0 0 0.181279 0 0 0 0 0.592855 0 0 0 0.1 0"/>
<feBlend mode="normal" in2="effect3_innerShadow_293_9366" result="effect4_innerShadow_293_9366"/>
</filter>
<filter id="filter2_iiii_293_9366" x="152.933" y="141.394" width="22.3916" height="24.7286" filterUnits="userSpaceOnUse" color-interpolation-filters="sRGB">
<feFlood flood-opacity="0" result="BackgroundImageFix"/>
<feBlend mode="normal" in="SourceGraphic" in2="BackgroundImageFix" result="shape"/>
<feColorMatrix in="SourceAlpha" type="matrix" values="0 0 0 0 0 0 0 0 0 0 0 0 0 0 0 0 0 0 127 0" result="hardAlpha"/>
<feOffset dy="2.33655"/>
<feGaussianBlur stdDeviation="0.584137"/>
<feComposite in2="hardAlpha" operator="arithmetic" k2="-1" k3="1"/>
<feColorMatrix type="matrix" values="0 0 0 0 0.78638 0 0 0 0 0.830606 0 0 0 0 0.9854 0 0 0 0.1 0"/>
<feBlend mode="normal" in2="shape" result="effect1_innerShadow_293_9366"/>
<feColorMatrix in="SourceAlpha" type="matrix" values="0 0 0 0 0 0 0 0 0 0 0 0 0 0 0 0 0 0 127 0" result="hardAlpha"/>
<feOffset dy="-1.16827"/>
<feGaussianBlur stdDeviation="0.584137"/>
<feComposite in2="hardAlpha" operator="arithmetic" k2="-1" k3="1"/>
<feColorMatrix type="matrix" values="0 0 0 0 0.0636856 0 0 0 0 0.181279 0 0 0 0 0.592855 0 0 0 0.1 0"/>
<feBlend mode="normal" in2="effect1_innerShadow_293_9366" result="effect2_innerShadow_293_9366"/>
<feColorMatrix in="SourceAlpha" type="matrix" values="0 0 0 0 0 0 0 0 0 0 0 0 0 0 0 0 0 0 127 0" result="hardAlpha"/>
<feOffset dy="2.33655"/>
<feGaussianBlur stdDeviation="0.584137"/>
<feComposite in2="hardAlpha" operator="arithmetic" k2="-1" k3="1"/>
<feColorMatrix type="matrix" values="0 0 0 0 0.78638 0 0 0 0 0.830606 0 0 0 0 0.9854 0 0 0 0.1 0"/>
<feBlend mode="normal" in2="effect2_innerShadow_293_9366" result="effect3_innerShadow_293_9366"/>
<feColorMatrix in="SourceAlpha" type="matrix" values="0 0 0 0 0 0 0 0 0 0 0 0 0 0 0 0 0 0 127 0" result="hardAlpha"/>
<feOffset dy="-1.16827"/>
<feGaussianBlur stdDeviation="0.584137"/>
<feComposite in2="hardAlpha" operator="arithmetic" k2="-1" k3="1"/>
<feColorMatrix type="matrix" values="0 0 0 0 0.0636856 0 0 0 0 0.181279 0 0 0 0 0.592855 0 0 0 0.1 0"/>
<feBlend mode="normal" in2="effect3_innerShadow_293_9366" result="effect4_innerShadow_293_9366"/>
</filter>
<filter id="filter3_iiii_293_9366" x="110.165" y="50.3649" width="17.5244" height="27.649" filterUnits="userSpaceOnUse" color-interpolation-filters="sRGB">
<feFlood flood-opacity="0" result="BackgroundImageFix"/>
<feBlend mode="normal" in="SourceGraphic" in2="BackgroundImageFix" result="shape"/>
<feColorMatrix in="SourceAlpha" type="matrix" values="0 0 0 0 0 0 0 0 0 0 0 0 0 0 0 0 0 0 127 0" result="hardAlpha"/>
<feOffset dy="2.33655"/>
<feGaussianBlur stdDeviation="0.584137"/>
<feComposite in2="hardAlpha" operator="arithmetic" k2="-1" k3="1"/>
<feColorMatrix type="matrix" values="0 0 0 0 0.78638 0 0 0 0 0.830606 0 0 0 0 0.9854 0 0 0 0.1 0"/>
<feBlend mode="normal" in2="shape" result="effect1_innerShadow_293_9366"/>
<feColorMatrix in="SourceAlpha" type="matrix" values="0 0 0 0 0 0 0 0 0 0 0 0 0 0 0 0 0 0 127 0" result="hardAlpha"/>
<feOffset dy="-1.16827"/>
<feGaussianBlur stdDeviation="0.584137"/>
<feComposite in2="hardAlpha" operator="arithmetic" k2="-1" k3="1"/>
<feColorMatrix type="matrix" values="0 0 0 0 0.0636856 0 0 0 0 0.181279 0 0 0 0 0.592855 0 0 0 0.1 0"/>
<feBlend mode="normal" in2="effect1_innerShadow_293_9366" result="effect2_innerShadow_293_9366"/>
<feColorMatrix in="SourceAlpha" type="matrix" values="0 0 0 0 0 0 0 0 0 0 0 0 0 0 0 0 0 0 127 0" result="hardAlpha"/>
<feOffset dy="2.33655"/>
<feGaussianBlur stdDeviation="0.584137"/>
<feComposite in2="hardAlpha" operator="arithmetic" k2="-1" k3="1"/>
<feColorMatrix type="matrix" values="0 0 0 0 0.78638 0 0 0 0 0.830606 0 0 0 0 0.9854 0 0 0 0.1 0"/>
<feBlend mode="normal" in2="effect2_innerShadow_293_9366" result="effect3_innerShadow_293_9366"/>
<feColorMatrix in="SourceAlpha" type="matrix" values="0 0 0 0 0 0 0 0 0 0 0 0 0 0 0 0 0 0 127 0" result="hardAlpha"/>
<feOffset dy="-1.16827"/>
<feGaussianBlur stdDeviation="0.584137"/>
<feComposite in2="hardAlpha" operator="arithmetic" k2="-1" k3="1"/>
<feColorMatrix type="matrix" values="0 0 0 0 0.0636856 0 0 0 0 0.181279 0 0 0 0 0.592855 0 0 0 0.1 0"/>
<feBlend mode="normal" in2="effect3_innerShadow_293_9366" result="effect4_innerShadow_293_9366"/>
</filter>
<radialGradient id="paint0_radial_293_9366" cx="0" cy="0" r="1" gradientUnits="userSpaceOnUse" gradientTransform="translate(73.3727 -6.48149) rotate(55.8616) scale(274.078 279.367)">
<stop stop-color="white" stop-opacity="0.6"/>
<stop offset="1" stop-color="white" stop-opacity="0.2"/>
</radialGradient>
<linearGradient id="paint1_linear_293_9366" x1="212.157" y1="171.222" x2="139.574" y2="40.6095" gradientUnits="userSpaceOnUse">
<stop stop-color="white"/>
<stop offset="1" stop-color="white" stop-opacity="0"/>
</linearGradient>
<linearGradient id="paint2_linear_293_9366" x1="44.4262" y1="197.381" x2="195.504" y2="197.738" gradientUnits="userSpaceOnUse">
<stop stop-color="white"/>
<stop offset="1" stop-color="white" stop-opacity="0"/>
</linearGradient>
<linearGradient id="paint3_linear_293_9366" x1="105.438" y1="31.2828" x2="32.9821" y2="161.43" gradientUnits="userSpaceOnUse">
<stop stop-color="white"/>
<stop offset="1" stop-color="white" stop-opacity="0"/>
</linearGradient>
<linearGradient id="paint4_linear_293_9366" x1="79.2091" y1="142.075" x2="79.2091" y2="165.441" gradientUnits="userSpaceOnUse">
<stop stop-color="#4064E2"/>
<stop offset="1" stop-color="#3556CA"/>
</linearGradient>
<radialGradient id="paint5_radial_293_9366" cx="0" cy="0" r="1" gradientUnits="userSpaceOnUse" gradientTransform="translate(74.1125 140.681) rotate(58.6589) scale(32.2598 31.4485)">
<stop stop-color="white" stop-opacity="0.6"/>
<stop offset="1" stop-color="white" stop-opacity="0.2"/>
</radialGradient>
<linearGradient id="paint6_linear_293_9366" x1="164.129" y1="142.562" x2="164.129" y2="164.954" gradientUnits="userSpaceOnUse">
<stop stop-color="#4064E2"/>
<stop offset="1" stop-color="#3556CA"/>
</linearGradient>
<radialGradient id="paint7_radial_293_9366" cx="0" cy="0" r="1" gradientUnits="userSpaceOnUse" gradientTransform="translate(159.244 141.226) rotate(58.6589) scale(30.9158 30.1384)">
<stop stop-color="white" stop-opacity="0.6"/>
<stop offset="1" stop-color="white" stop-opacity="0.2"/>
</radialGradient>
<linearGradient id="paint8_linear_293_9366" x1="118.927" y1="51.5332" x2="118.927" y2="76.8458" gradientUnits="userSpaceOnUse">
<stop stop-color="#4064E2"/>
<stop offset="1" stop-color="#3556CA"/>
</linearGradient>
<radialGradient id="paint9_radial_293_9366" cx="0" cy="0" r="1" gradientUnits="userSpaceOnUse" gradientTransform="translate(115.105 50.0225) rotate(67.1392) scale(32.3931 25.4468)">
<stop stop-color="white" stop-opacity="0.6"/>
<stop offset="1" stop-color="white" stop-opacity="0.2"/>
</radialGradient>
</defs>
</svg>
