<svg width="335" height="216" viewBox="0 0 335 216" fill="none" xmlns="http://www.w3.org/2000/svg">
<g filter="url(#filter0_b_293_9391)">
<path d="M91.7449 18.725L18.6099 29.5598C17.2226 29.7654 16.1873 30.9439 16.1623 32.3462L15.0041 97.2024C15.0014 97.3563 15.0114 97.5132 15.0335 97.6656C18.5473 121.91 23.6177 134.708 37.5059 156.11C53.4363 175.382 64.3408 185.597 92.2216 197.809C92.9459 198.126 93.7877 198.129 94.5122 197.812C118.424 187.357 131.44 176.953 148.83 156.11C162.401 134.591 167.441 122.066 170.505 97.6472C170.523 97.5069 170.53 97.3627 170.527 97.2214L168.982 32.335C168.949 30.9377 167.913 29.7678 166.53 29.5651L92.5813 18.7244C92.304 18.6837 92.0222 18.684 91.7449 18.725Z" fill="#16181E"/>
<path d="M91.7449 18.725L18.6099 29.5598C17.2226 29.7654 16.1873 30.9439 16.1623 32.3462L15.0041 97.2024C15.0014 97.3563 15.0114 97.5132 15.0335 97.6656C18.5473 121.91 23.6177 134.708 37.5059 156.11C53.4363 175.382 64.3408 185.597 92.2216 197.809C92.9459 198.126 93.7877 198.129 94.5122 197.812C118.424 187.357 131.44 176.953 148.83 156.11C162.401 134.591 167.441 122.066 170.505 97.6472C170.523 97.5069 170.53 97.3627 170.527 97.2214L168.982 32.335C168.949 30.9377 167.913 29.7678 166.53 29.5651L92.5813 18.7244C92.304 18.6837 92.0222 18.684 91.7449 18.725Z" stroke="url(#paint0_radial_293_9391)" stroke-opacity="0.2" stroke-width="2" stroke-linecap="round" stroke-linejoin="round"/>
</g>
<g filter="url(#filter1_bdi_293_9391)">
<path d="M90.8964 26.1216L31.2189 34.9801C26.2088 35.7238 22.4707 39.9804 22.3804 45.0446L21.4426 97.6659C21.4327 98.221 21.468 98.783 21.5488 99.3322C24.778 121.279 29.4735 133.038 42.1308 152.582C56.1896 169.623 65.9932 178.981 89.4127 189.652C92.0165 190.838 95.0155 190.846 97.6171 189.655C117.705 180.457 129.295 170.887 144.537 152.582C156.916 132.916 161.579 121.4 164.404 99.2665C164.469 98.7609 164.495 98.244 164.483 97.7344L163.23 45.0043C163.11 39.9581 159.371 35.7325 154.377 34.999L93.9235 26.1193C92.9198 25.9719 91.8999 25.9727 90.8964 26.1216Z" fill="#1E2028"/>
<path d="M31.2923 35.4746L90.9698 26.6162C91.9249 26.4744 92.8956 26.4737 93.8509 26.614L154.304 35.4937C159.057 36.1918 162.616 40.2135 162.73 45.0162L163.983 97.7463C163.994 98.2313 163.97 98.723 163.908 99.2032C162.499 110.245 160.634 118.617 157.586 126.672C154.539 134.723 150.304 142.479 144.132 152.287C128.939 170.529 117.408 180.043 97.409 189.2C94.9405 190.33 92.0931 190.324 89.62 189.197C77.9377 183.874 69.6712 178.887 62.577 173.118C55.4864 167.351 49.55 160.788 42.5348 152.286C29.9244 132.811 25.2599 121.12 22.0435 99.2595C21.9667 98.7377 21.9331 98.2031 21.9425 97.6748L22.8803 45.0535C22.9662 40.2337 26.524 36.1824 31.2923 35.4746Z" stroke="url(#paint1_radial_293_9391)" stroke-opacity="0.2"/>
</g>
<g filter="url(#filter2_iiii_293_9391)">
<path d="M104.249 87.5767H99.249C99.249 86.9136 98.9856 86.2777 98.5168 85.8089C98.0479 85.3401 97.4121 85.0767 96.749 85.0767H77.999C77.336 85.0767 76.7001 85.3401 76.2313 85.8089C75.7624 86.2777 75.499 86.9136 75.499 87.5767V100.077C75.499 100.74 75.7624 101.376 76.2313 101.844C76.7001 102.313 77.336 102.577 77.999 102.577H79.249V112.577C79.249 113.24 79.5124 113.876 79.9813 114.344C80.4501 114.813 81.086 115.077 81.749 115.077H104.249C104.912 115.077 105.548 114.813 106.017 114.344C106.486 113.876 106.749 113.24 106.749 112.577V90.0767C106.749 89.4136 106.486 88.7777 106.017 88.3089C105.548 87.8401 104.912 87.5767 104.249 87.5767ZM89.6146 90.961C89.3801 90.7265 89.2483 90.4084 89.2483 90.0767C89.2483 89.745 89.3801 89.4268 89.6146 89.1923C89.8492 88.9577 90.1673 88.826 90.499 88.826C90.8307 88.826 91.1488 88.9577 91.3834 89.1923L95.1334 92.9423C95.2496 93.0584 95.3418 93.1962 95.4047 93.348C95.4676 93.4997 95.5 93.6624 95.5 93.8267C95.5 93.9909 95.4676 94.1536 95.4047 94.3053C95.3418 94.4571 95.2496 94.5949 95.1334 94.711L91.3834 98.461C91.1488 98.6956 90.8307 98.8274 90.499 98.8274C90.1673 98.8274 89.8492 98.6956 89.6146 98.461C89.3801 98.2265 89.2483 97.9084 89.2483 97.5767C89.2483 97.245 89.3801 96.9268 89.6146 96.6923L92.4818 93.8267L89.6146 90.961ZM79.6146 94.711C79.4984 94.5949 79.4062 94.4571 79.3433 94.3053C79.2804 94.1536 79.248 93.9909 79.248 93.8267C79.248 93.6624 79.2804 93.4997 79.3433 93.348C79.4062 93.1962 79.4984 93.0584 79.6146 92.9423L83.3646 89.1923C83.5992 88.9577 83.9173 88.826 84.249 88.826C84.5807 88.826 84.8988 88.9577 85.1334 89.1923C85.3679 89.4268 85.4997 89.745 85.4997 90.0767C85.4997 90.4084 85.3679 90.7265 85.1334 90.961L82.2662 93.8267L85.1334 96.6923C85.3679 96.9268 85.4997 97.245 85.4997 97.5767C85.4997 97.9084 85.3679 98.2265 85.1334 98.461C84.8988 98.6956 84.5807 98.8274 84.249 98.8274C83.9173 98.8274 83.5992 98.6956 83.3646 98.461L79.6146 94.711ZM104.249 112.577H81.749V102.577H96.749C97.4121 102.577 98.0479 102.313 98.5168 101.844C98.9856 101.376 99.249 100.74 99.249 100.077V90.0767H104.249V112.577Z" fill="url(#paint2_linear_293_9391)"/>
</g>
<path d="M98.749 87.5767V88.0767H99.249H104.249C104.779 88.0767 105.288 88.2874 105.663 88.6624C106.038 89.0375 106.249 89.5462 106.249 90.0767V112.577C106.249 113.107 106.038 113.616 105.663 113.991C105.288 114.366 104.779 114.577 104.249 114.577H81.749C81.2186 114.577 80.7099 114.366 80.3348 113.991C79.9597 113.616 79.749 113.107 79.749 112.577V102.577V102.077H79.249H77.999C77.4686 102.077 76.9599 101.866 76.5848 101.491C76.2097 101.116 75.999 100.607 75.999 100.077V87.5767C75.999 87.0462 76.2097 86.5375 76.5848 86.1624C76.9599 85.7874 77.4686 85.5767 77.999 85.5767H96.749C97.2795 85.5767 97.7882 85.7874 98.1632 86.1624C98.5383 86.5375 98.749 87.0462 98.749 87.5767ZM89.2611 91.3146L89.2612 91.3147L91.7745 93.8267L89.2612 96.3386L89.2611 96.3387C88.9328 96.6671 88.7483 97.1123 88.7483 97.5767C88.7483 98.041 88.9328 98.4863 89.2611 98.8146C89.5894 99.1429 90.0347 99.3274 90.499 99.3274C90.9633 99.3274 91.4086 99.1429 91.737 98.8146L95.4868 95.0648C95.4868 95.0647 95.4869 95.0647 95.487 95.0646C95.6496 94.9021 95.7786 94.7092 95.8666 94.4968C95.9547 94.2844 96 94.0566 96 93.8267C96 93.5967 95.9547 93.369 95.8666 93.1565C95.7785 92.9441 95.6495 92.7511 95.4868 92.5885L91.737 88.8387C91.4086 88.5104 90.9633 88.326 90.499 88.326C90.0347 88.326 89.5894 88.5104 89.2611 88.8387C88.9328 89.1671 88.7483 89.6123 88.7483 90.0767C88.7483 90.541 88.9328 90.9863 89.2611 91.3146ZM82.9735 93.8267L85.4869 91.3147L85.487 91.3146C85.8153 90.9863 85.9997 90.541 85.9997 90.0767C85.9997 89.6123 85.8153 89.1671 85.487 88.8387C85.1586 88.5104 84.7133 88.326 84.249 88.326C83.7847 88.326 83.3394 88.5104 83.0111 88.8387L79.2613 92.5885C79.0986 92.7511 78.9695 92.9441 78.8814 93.1565C78.7934 93.369 78.748 93.5967 78.748 93.8267C78.748 94.0566 78.7934 94.2844 78.8814 94.4968C78.9695 94.7092 79.0985 94.9021 79.2611 95.0646C79.2612 95.0647 79.2612 95.0647 79.2613 95.0648L83.0111 98.8146C83.3394 99.1429 83.7847 99.3274 84.249 99.3274C84.7133 99.3274 85.1586 99.1429 85.487 98.8146C85.8153 98.4863 85.9997 98.041 85.9997 97.5767C85.9997 97.1123 85.8153 96.6671 85.487 96.3387L85.4869 96.3386L82.9735 93.8267ZM104.249 113.077H104.749V112.577V90.0767V89.5767H104.249H99.249H98.749V90.0767V100.077C98.749 100.607 98.5383 101.116 98.1632 101.491C97.7882 101.866 97.2795 102.077 96.749 102.077H81.749H81.249V102.577V112.577V113.077H81.749H104.249Z" stroke="url(#paint3_radial_293_9391)" stroke-opacity="0.2"/>
<g filter="url(#filter3_bi_293_9391)">
<mask id="path-6-inside-1_293_9391" fill="white">
<path fill-rule="evenodd" clip-rule="evenodd" d="M172.956 197.988H299.007C299.019 197.985 299.059 197.98 299.127 197.971C301.424 197.657 334.999 193.081 334.999 154.49C335.11 144.394 331.978 134.585 326.165 126.825C320.351 119.066 312.238 113.865 303.284 112.158C303.072 105.825 301.15 99.7091 297.768 94.6064C294.386 89.5038 289.7 85.6507 284.32 83.5485C280.656 82.396 276.795 82.251 273.069 83.126C269.344 84.0009 265.866 85.8696 262.935 88.5709C260.013 81.1021 255.883 74.2927 250.749 68.4812C243.236 59.732 233.473 53.7776 222.798 51.4336C212.122 49.0895 201.055 50.4704 191.113 55.387C181.925 60.2771 174.126 67.8862 168.574 77.379C163.022 86.8719 159.931 97.8813 159.64 109.199V112.876C151.713 115.462 144.8 120.938 140.013 128.421C135.226 135.905 132.845 144.961 133.252 154.131V157.629C134.01 168.706 138.538 179.046 145.915 186.544C153.291 194.042 162.96 198.134 172.956 197.988Z"/>
</mask>
<path fill-rule="evenodd" clip-rule="evenodd" d="M172.956 197.988H299.007C299.019 197.985 299.059 197.98 299.127 197.971C301.424 197.657 334.999 193.081 334.999 154.49C335.11 144.394 331.978 134.585 326.165 126.825C320.351 119.066 312.238 113.865 303.284 112.158C303.072 105.825 301.15 99.7091 297.768 94.6064C294.386 89.5038 289.7 85.6507 284.32 83.5485C280.656 82.396 276.795 82.251 273.069 83.126C269.344 84.0009 265.866 85.8696 262.935 88.5709C260.013 81.1021 255.883 74.2927 250.749 68.4812C243.236 59.732 233.473 53.7776 222.798 51.4336C212.122 49.0895 201.055 50.4704 191.113 55.387C181.925 60.2771 174.126 67.8862 168.574 77.379C163.022 86.8719 159.931 97.8813 159.64 109.199V112.876C151.713 115.462 144.8 120.938 140.013 128.421C135.226 135.905 132.845 144.961 133.252 154.131V157.629C134.01 168.706 138.538 179.046 145.915 186.544C153.291 194.042 162.96 198.134 172.956 197.988Z" fill="#1E2028"/>
<path d="M299.007 197.988V199.488H299.172L299.333 199.452L299.007 197.988ZM172.956 197.988V196.488H172.945L172.934 196.488L172.956 197.988ZM299.127 197.971L299.33 199.457L299.33 199.457L299.127 197.971ZM334.999 154.49L333.499 154.474L333.499 154.482V154.49H334.999ZM326.165 126.825L327.365 125.926L326.165 126.825ZM303.284 112.158L301.785 112.208L301.825 113.407L303.003 113.632L303.284 112.158ZM297.768 94.6064L296.518 95.4352L297.768 94.6064ZM284.32 83.5485L284.866 82.1514L284.818 82.1328L284.77 82.1176L284.32 83.5485ZM273.069 83.126L273.412 84.5863L273.069 83.126ZM262.935 88.5709L261.538 89.1173L262.337 91.1613L263.951 89.6739L262.935 88.5709ZM250.749 68.4812L249.611 69.4584L249.618 69.4664L249.625 69.4743L250.749 68.4812ZM222.798 51.4336L222.476 52.8987L222.798 51.4336ZM191.113 55.387L190.448 54.0425L190.428 54.0524L190.408 54.0629L191.113 55.387ZM168.574 77.379L167.28 76.6218V76.6218L168.574 77.379ZM159.64 109.199L158.141 109.16L158.14 109.179V109.199H159.64ZM159.64 112.876L160.105 114.302L161.14 113.964V112.876H159.64ZM140.013 128.421L138.749 127.613L140.013 128.421ZM133.252 154.131H134.752V154.098L134.75 154.065L133.252 154.131ZM133.252 157.629H131.752V157.68L131.755 157.732L133.252 157.629ZM145.915 186.544L144.845 187.596H144.845L145.915 186.544ZM299.007 196.488H172.956V199.488H299.007V196.488ZM298.925 196.484C298.916 196.485 298.773 196.503 298.681 196.524L299.333 199.452C299.317 199.456 299.304 199.458 299.295 199.46C299.286 199.462 299.279 199.463 299.274 199.464C299.269 199.465 299.265 199.465 299.262 199.466C299.259 199.466 299.257 199.467 299.255 199.467C299.252 199.468 299.251 199.468 299.252 199.468C299.253 199.467 299.254 199.467 299.257 199.467C299.264 199.466 299.273 199.465 299.285 199.463C299.298 199.461 299.312 199.459 299.33 199.457L298.925 196.484ZM333.499 154.49C333.499 173.26 325.375 183.605 317.071 189.351C308.685 195.154 300.002 196.337 298.924 196.484L299.33 199.457C300.549 199.291 309.802 198.029 318.778 191.818C327.835 185.55 336.499 174.311 336.499 154.49H333.499ZM324.964 127.725C330.571 135.208 333.607 144.693 333.499 154.474L336.499 154.507C336.614 144.095 333.385 133.961 327.365 125.926L324.964 127.725ZM303.003 113.632C311.565 115.264 319.36 120.244 324.964 127.725L327.365 125.926C321.343 117.888 312.911 112.467 303.565 110.685L303.003 113.632ZM296.518 95.4352C299.741 100.298 301.582 106.142 301.785 112.208L304.783 112.108C304.562 105.508 302.559 99.1202 299.018 93.7777L296.518 95.4352ZM283.774 84.9456C288.848 86.9285 293.295 90.5737 296.518 95.4352L299.018 93.7777C295.476 88.4339 290.551 84.3729 284.866 82.1514L283.774 84.9456ZM273.412 84.5863C276.875 83.7731 280.462 83.9074 283.87 84.9794L284.77 82.1176C280.85 80.8847 276.715 80.729 272.726 81.6657L273.412 84.5863ZM263.951 89.6739C266.701 87.1402 269.949 85.3996 273.412 84.5863L272.726 81.6657C268.739 82.6023 265.031 84.599 261.918 87.4679L263.951 89.6739ZM249.625 69.4743C254.638 75.1495 258.678 81.8065 261.538 89.1173L264.332 88.0245C261.348 80.3976 257.127 73.4359 251.873 67.4881L249.625 69.4743ZM222.476 52.8987C232.816 55.1689 242.298 60.9415 249.611 69.4584L251.887 67.504C244.175 58.5224 234.131 52.3863 223.119 49.9685L222.476 52.8987ZM191.778 56.7316C201.419 51.9637 212.138 50.6289 222.476 52.8987L223.119 49.9685C212.105 47.5501 200.691 48.9771 190.448 54.0425L191.778 56.7316ZM169.869 78.1363C175.289 68.8693 182.889 61.4631 191.817 56.7112L190.408 54.0629C180.96 59.0911 172.964 66.9031 167.28 76.6218L169.869 78.1363ZM161.14 109.237C161.424 98.1651 164.449 87.4041 169.869 78.1363L167.28 76.6218C161.596 86.3397 158.438 97.5975 158.141 109.16L161.14 109.237ZM161.14 112.876V109.199H158.14V112.876H161.14ZM141.277 129.23C145.89 122.017 152.53 116.773 160.105 114.302L159.175 111.45C150.896 114.151 143.71 119.858 138.749 127.613L141.277 129.23ZM134.75 154.065C134.356 145.192 136.662 136.444 141.277 129.23L138.749 127.613C133.79 135.366 131.333 144.73 131.753 154.198L134.75 154.065ZM134.752 157.629V154.131H131.752V157.629H134.752ZM146.984 185.492C139.874 178.265 135.484 168.268 134.748 157.527L131.755 157.732C132.537 169.145 137.203 179.828 144.845 187.596L146.984 185.492ZM172.934 196.488C163.371 196.628 154.089 192.715 146.984 185.492L144.845 187.596C152.492 195.369 162.549 199.64 172.977 199.488L172.934 196.488Z" fill="url(#paint4_radial_293_9391)" fill-opacity="0.2" mask="url(#path-6-inside-1_293_9391)"/>
</g>
<g filter="url(#filter4_iiii_293_9391)">
<path d="M246.35 126.549H221.465C220.805 126.549 220.172 126.811 219.705 127.278C219.239 127.745 218.977 128.378 218.977 129.038V136.503C218.977 137.163 219.239 137.796 219.705 138.263C220.172 138.73 220.805 138.992 221.465 138.992H246.35C247.01 138.992 247.643 138.73 248.11 138.263C248.576 137.796 248.839 137.163 248.839 136.503V129.038C248.839 128.378 248.576 127.745 248.11 127.278C247.643 126.811 247.01 126.549 246.35 126.549ZM241.995 134.637C241.626 134.637 241.265 134.528 240.958 134.322C240.651 134.117 240.412 133.826 240.271 133.485C240.13 133.144 240.093 132.769 240.165 132.406C240.237 132.044 240.415 131.712 240.676 131.451C240.937 131.19 241.269 131.012 241.631 130.94C241.993 130.868 242.368 130.905 242.709 131.046C243.051 131.188 243.342 131.427 243.547 131.734C243.752 132.041 243.862 132.401 243.862 132.771C243.862 133.266 243.665 133.74 243.315 134.09C242.965 134.44 242.49 134.637 241.995 134.637Z" fill="url(#paint5_linear_293_9391)"/>
</g>
<path d="M221.465 127.049H246.35C246.878 127.049 247.383 127.259 247.756 127.632C248.129 128.005 248.339 128.51 248.339 129.038V136.503C248.339 137.031 248.129 137.537 247.756 137.909C247.383 138.282 246.878 138.492 246.35 138.492H221.465C220.938 138.492 220.432 138.282 220.059 137.909C219.686 137.537 219.477 137.031 219.477 136.503V129.038C219.477 128.51 219.686 128.005 220.059 127.632C220.432 127.259 220.938 127.049 221.465 127.049ZM240.681 134.738C241.07 134.998 241.527 135.137 241.995 135.137C242.623 135.137 243.225 134.888 243.669 134.444C244.112 134 244.362 133.398 244.362 132.771C244.362 132.303 244.223 131.845 243.963 131.456C243.703 131.067 243.333 130.763 242.901 130.584C242.468 130.405 241.993 130.358 241.534 130.45C241.075 130.541 240.653 130.766 240.322 131.097C239.991 131.428 239.766 131.85 239.674 132.309C239.583 132.768 239.63 133.244 239.809 133.676C239.988 134.109 240.291 134.478 240.681 134.738Z" stroke="url(#paint6_radial_293_9391)" stroke-opacity="0.2"/>
<g filter="url(#filter5_di_293_9391)">
<path d="M246.35 141.48H221.465C220.805 141.48 220.172 141.743 219.705 142.209C219.239 142.676 218.977 143.309 218.977 143.969V151.435C218.977 152.094 219.239 152.727 219.705 153.194C220.172 153.661 220.805 153.923 221.465 153.923H246.35C247.01 153.923 247.643 153.661 248.11 153.194C248.576 152.727 248.839 152.094 248.839 151.435V143.969C248.839 143.309 248.576 142.676 248.11 142.209C247.643 141.743 247.01 141.48 246.35 141.48ZM241.995 149.568C241.626 149.568 241.265 149.459 240.958 149.254C240.651 149.048 240.412 148.757 240.271 148.416C240.13 148.075 240.093 147.7 240.165 147.338C240.237 146.976 240.415 146.643 240.676 146.382C240.937 146.121 241.269 145.943 241.631 145.871C241.993 145.799 242.368 145.836 242.709 145.977C243.051 146.119 243.342 146.358 243.547 146.665C243.752 146.972 243.862 147.333 243.862 147.702C243.862 148.197 243.665 148.671 243.315 149.021C242.965 149.371 242.49 149.568 241.995 149.568Z" fill="#EC502D"/>
<path d="M221.465 141.98H246.35C246.878 141.98 247.383 142.19 247.756 142.563C248.129 142.936 248.339 143.442 248.339 143.969V151.435C248.339 151.962 248.129 152.468 247.756 152.841C247.383 153.214 246.878 153.423 246.35 153.423H221.465C220.938 153.423 220.432 153.214 220.059 152.841C219.686 152.468 219.477 151.962 219.477 151.435V143.969C219.477 143.442 219.686 142.936 220.059 142.563C220.432 142.19 220.938 141.98 221.465 141.98ZM240.681 149.669C241.07 149.929 241.527 150.068 241.995 150.068C242.623 150.068 243.225 149.819 243.669 149.375C244.112 148.931 244.362 148.329 244.362 147.702C244.362 147.234 244.223 146.776 243.963 146.387C243.703 145.998 243.333 145.695 242.901 145.515C242.468 145.336 241.993 145.29 241.534 145.381C241.075 145.472 240.653 145.698 240.322 146.028C239.991 146.359 239.766 146.781 239.674 147.24C239.583 147.699 239.63 148.175 239.809 148.607C239.988 149.04 240.291 149.409 240.681 149.669Z" stroke="url(#paint7_radial_293_9391)" stroke-opacity="0.2"/>
</g>
<g filter="url(#filter6_b_293_9391)">
<circle cx="151" cy="106.629" r="16" fill="url(#paint8_radial_293_9391)" fill-opacity="0.2"/>
<circle cx="151" cy="106.629" r="14" stroke="#EC502D" stroke-width="4"/>
</g>
<rect x="161.68" y="112.457" width="15.8903" height="5" rx="2.5" transform="rotate(36.8723 161.68 112.457)" fill="#EC502D"/>
<defs>
<filter id="filter0_b_293_9391" x="-3.20706" y="0.482883" width="191.945" height="215.776" filterUnits="userSpaceOnUse" color-interpolation-filters="sRGB">
<feFlood flood-opacity="0" result="BackgroundImageFix"/>
<feGaussianBlur in="BackgroundImageFix" stdDeviation="8.60548"/>
<feComposite in2="SourceAlpha" operator="in" result="effect1_backgroundBlur_293_9391"/>
<feBlend mode="normal" in="SourceGraphic" in2="effect1_backgroundBlur_293_9391" result="shape"/>
</filter>
<filter id="filter1_bdi_293_9391" x="0.718443" y="9.6036" width="184.49" height="205.982" filterUnits="userSpaceOnUse" color-interpolation-filters="sRGB">
<feFlood flood-opacity="0" result="BackgroundImageFix"/>
<feGaussianBlur in="BackgroundImageFix" stdDeviation="7.33938"/>
<feComposite in2="SourceAlpha" operator="in" result="effect1_backgroundBlur_293_9391"/>
<feColorMatrix in="SourceAlpha" type="matrix" values="0 0 0 0 0 0 0 0 0 0 0 0 0 0 0 0 0 0 127 0" result="hardAlpha"/>
<feOffset dy="4.31728"/>
<feGaussianBlur stdDeviation="10.3615"/>
<feComposite in2="hardAlpha" operator="out"/>
<feColorMatrix type="matrix" values="0 0 0 0 0.30193 0 0 0 0 0.329476 0 0 0 0 0.435726 0 0 0 0.15 0"/>
<feBlend mode="normal" in2="effect1_backgroundBlur_293_9391" result="effect2_dropShadow_293_9391"/>
<feBlend mode="normal" in="SourceGraphic" in2="effect2_dropShadow_293_9391" result="shape"/>
<feColorMatrix in="SourceAlpha" type="matrix" values="0 0 0 0 0 0 0 0 0 0 0 0 0 0 0 0 0 0 127 0" result="hardAlpha"/>
<feOffset dx="0.863457" dy="3.45383"/>
<feGaussianBlur stdDeviation="0.431728"/>
<feComposite in2="hardAlpha" operator="arithmetic" k2="-1" k3="1"/>
<feColorMatrix type="matrix" values="0 0 0 0 0.0978957 0 0 0 0 0.102513 0 0 0 0 0.125602 0 0 0 0.5 0"/>
<feBlend mode="normal" in2="shape" result="effect3_innerShadow_293_9391"/>
</filter>
<filter id="filter2_iiii_293_9391" x="75.499" y="83.6424" width="31.25" height="32.8685" filterUnits="userSpaceOnUse" color-interpolation-filters="sRGB">
<feFlood flood-opacity="0" result="BackgroundImageFix"/>
<feBlend mode="normal" in="SourceGraphic" in2="BackgroundImageFix" result="shape"/>
<feColorMatrix in="SourceAlpha" type="matrix" values="0 0 0 0 0 0 0 0 0 0 0 0 0 0 0 0 0 0 127 0" result="hardAlpha"/>
<feOffset dy="0.717123"/>
<feGaussianBlur stdDeviation="1.0452"/>
<feComposite in2="hardAlpha" operator="arithmetic" k2="-1" k3="1"/>
<feColorMatrix type="matrix" values="0 0 0 0 0.78638 0 0 0 0 0.830606 0 0 0 0 0.9854 0 0 0 0.1 0"/>
<feBlend mode="normal" in2="shape" result="effect1_innerShadow_293_9391"/>
<feColorMatrix in="SourceAlpha" type="matrix" values="0 0 0 0 0 0 0 0 0 0 0 0 0 0 0 0 0 0 127 0" result="hardAlpha"/>
<feOffset dy="-1.43425"/>
<feGaussianBlur stdDeviation="1.0452"/>
<feComposite in2="hardAlpha" operator="arithmetic" k2="-1" k3="1"/>
<feColorMatrix type="matrix" values="0 0 0 0 0.0636856 0 0 0 0 0.181279 0 0 0 0 0.592855 0 0 0 0.1 0"/>
<feBlend mode="normal" in2="effect1_innerShadow_293_9391" result="effect2_innerShadow_293_9391"/>
<feColorMatrix in="SourceAlpha" type="matrix" values="0 0 0 0 0 0 0 0 0 0 0 0 0 0 0 0 0 0 127 0" result="hardAlpha"/>
<feOffset dy="1.43425"/>
<feGaussianBlur stdDeviation="1.0452"/>
<feComposite in2="hardAlpha" operator="arithmetic" k2="-1" k3="1"/>
<feColorMatrix type="matrix" values="0 0 0 0 0.78638 0 0 0 0 0.830606 0 0 0 0 0.9854 0 0 0 0.1 0"/>
<feBlend mode="normal" in2="effect2_innerShadow_293_9391" result="effect3_innerShadow_293_9391"/>
<feColorMatrix in="SourceAlpha" type="matrix" values="0 0 0 0 0 0 0 0 0 0 0 0 0 0 0 0 0 0 127 0" result="hardAlpha"/>
<feOffset dy="-1.43425"/>
<feGaussianBlur stdDeviation="1.0452"/>
<feComposite in2="hardAlpha" operator="arithmetic" k2="-1" k3="1"/>
<feColorMatrix type="matrix" values="0 0 0 0 0.0636856 0 0 0 0 0.181279 0 0 0 0 0.592855 0 0 0 0.1 0"/>
<feBlend mode="normal" in2="effect3_innerShadow_293_9391" result="effect4_innerShadow_293_9391"/>
</filter>
<filter id="filter3_bi_293_9391" x="109.516" y="26.6301" width="249.177" height="195.053" filterUnits="userSpaceOnUse" color-interpolation-filters="sRGB">
<feFlood flood-opacity="0" result="BackgroundImageFix"/>
<feGaussianBlur in="BackgroundImageFix" stdDeviation="11.8456"/>
<feComposite in2="SourceAlpha" operator="in" result="effect1_backgroundBlur_293_9391"/>
<feBlend mode="normal" in="SourceGraphic" in2="effect1_backgroundBlur_293_9391" result="shape"/>
<feColorMatrix in="SourceAlpha" type="matrix" values="0 0 0 0 0 0 0 0 0 0 0 0 0 0 0 0 0 0 127 0" result="hardAlpha"/>
<feOffset dy="4"/>
<feGaussianBlur stdDeviation="4"/>
<feComposite in2="hardAlpha" operator="arithmetic" k2="-1" k3="1"/>
<feColorMatrix type="matrix" values="0 0 0 0 1 0 0 0 0 1 0 0 0 0 1 0 0 0 0.2 0"/>
<feBlend mode="normal" in2="shape" result="effect2_innerShadow_293_9391"/>
</filter>
<filter id="filter4_iiii_293_9391" x="218.977" y="125.115" width="29.8623" height="15.3109" filterUnits="userSpaceOnUse" color-interpolation-filters="sRGB">
<feFlood flood-opacity="0" result="BackgroundImageFix"/>
<feBlend mode="normal" in="SourceGraphic" in2="BackgroundImageFix" result="shape"/>
<feColorMatrix in="SourceAlpha" type="matrix" values="0 0 0 0 0 0 0 0 0 0 0 0 0 0 0 0 0 0 127 0" result="hardAlpha"/>
<feOffset dy="0.717123"/>
<feGaussianBlur stdDeviation="1.0452"/>
<feComposite in2="hardAlpha" operator="arithmetic" k2="-1" k3="1"/>
<feColorMatrix type="matrix" values="0 0 0 0 0.78638 0 0 0 0 0.830606 0 0 0 0 0.9854 0 0 0 0.1 0"/>
<feBlend mode="normal" in2="shape" result="effect1_innerShadow_293_9391"/>
<feColorMatrix in="SourceAlpha" type="matrix" values="0 0 0 0 0 0 0 0 0 0 0 0 0 0 0 0 0 0 127 0" result="hardAlpha"/>
<feOffset dy="-1.43425"/>
<feGaussianBlur stdDeviation="1.0452"/>
<feComposite in2="hardAlpha" operator="arithmetic" k2="-1" k3="1"/>
<feColorMatrix type="matrix" values="0 0 0 0 0.0636856 0 0 0 0 0.181279 0 0 0 0 0.592855 0 0 0 0.1 0"/>
<feBlend mode="normal" in2="effect1_innerShadow_293_9391" result="effect2_innerShadow_293_9391"/>
<feColorMatrix in="SourceAlpha" type="matrix" values="0 0 0 0 0 0 0 0 0 0 0 0 0 0 0 0 0 0 127 0" result="hardAlpha"/>
<feOffset dy="1.43425"/>
<feGaussianBlur stdDeviation="1.0452"/>
<feComposite in2="hardAlpha" operator="arithmetic" k2="-1" k3="1"/>
<feColorMatrix type="matrix" values="0 0 0 0 0.78638 0 0 0 0 0.830606 0 0 0 0 0.9854 0 0 0 0.1 0"/>
<feBlend mode="normal" in2="effect2_innerShadow_293_9391" result="effect3_innerShadow_293_9391"/>
<feColorMatrix in="SourceAlpha" type="matrix" values="0 0 0 0 0 0 0 0 0 0 0 0 0 0 0 0 0 0 127 0" result="hardAlpha"/>
<feOffset dy="-1.43425"/>
<feGaussianBlur stdDeviation="1.0452"/>
<feComposite in2="hardAlpha" operator="arithmetic" k2="-1" k3="1"/>
<feColorMatrix type="matrix" values="0 0 0 0 0.0636856 0 0 0 0 0.181279 0 0 0 0 0.592855 0 0 0 0.1 0"/>
<feBlend mode="normal" in2="effect3_innerShadow_293_9391" result="effect4_innerShadow_293_9391"/>
</filter>
<filter id="filter5_di_293_9391" x="189.114" y="116.595" width="89.5865" height="72.1666" filterUnits="userSpaceOnUse" color-interpolation-filters="sRGB">
<feFlood flood-opacity="0" result="BackgroundImageFix"/>
<feColorMatrix in="SourceAlpha" type="matrix" values="0 0 0 0 0 0 0 0 0 0 0 0 0 0 0 0 0 0 127 0" result="hardAlpha"/>
<feOffset dy="4.97702"/>
<feGaussianBlur stdDeviation="14.931"/>
<feComposite in2="hardAlpha" operator="out"/>
<feColorMatrix type="matrix" values="0 0 0 0 0.960784 0 0 0 0 0.427451 0 0 0 0 0.309804 0 0 0 0.15 0"/>
<feBlend mode="normal" in2="BackgroundImageFix" result="effect1_dropShadow_293_9391"/>
<feBlend mode="normal" in="SourceGraphic" in2="effect1_dropShadow_293_9391" result="shape"/>
<feColorMatrix in="SourceAlpha" type="matrix" values="0 0 0 0 0 0 0 0 0 0 0 0 0 0 0 0 0 0 127 0" result="hardAlpha"/>
<feOffset dy="2.48851"/>
<feGaussianBlur stdDeviation="0.622127"/>
<feComposite in2="hardAlpha" operator="arithmetic" k2="-1" k3="1"/>
<feColorMatrix type="matrix" values="0 0 0 0 0.219608 0 0 0 0 0.054902 0 0 0 0 0.0156863 0 0 0 0.05 0"/>
<feBlend mode="normal" in2="shape" result="effect2_innerShadow_293_9391"/>
</filter>
<filter id="filter6_b_293_9391" x="126" y="81.6289" width="50" height="50" filterUnits="userSpaceOnUse" color-interpolation-filters="sRGB">
<feFlood flood-opacity="0" result="BackgroundImageFix"/>
<feGaussianBlur in="BackgroundImageFix" stdDeviation="4.5"/>
<feComposite in2="SourceAlpha" operator="in" result="effect1_backgroundBlur_293_9391"/>
<feBlend mode="normal" in="SourceGraphic" in2="effect1_backgroundBlur_293_9391" result="shape"/>
</filter>
<radialGradient id="paint0_radial_293_9391" cx="0" cy="0" r="1" gradientUnits="userSpaceOnUse" gradientTransform="translate(58.8404 7.94138) rotate(62.1996) scale(239.48 216.81)">
<stop stop-color="white" stop-opacity="0.6"/>
<stop offset="1" stop-color="white" stop-opacity="0.2"/>
</radialGradient>
<radialGradient id="paint1_radial_293_9391" cx="0" cy="0" r="1" gradientUnits="userSpaceOnUse" gradientTransform="translate(61.7563 16.0148) rotate(62.2459) scale(220.634 199.528)">
<stop stop-color="white" stop-opacity="0.6"/>
<stop offset="1" stop-color="white" stop-opacity="0.2"/>
</radialGradient>
<linearGradient id="paint2_linear_293_9391" x1="91.124" y1="85.0767" x2="91.124" y2="115.077" gradientUnits="userSpaceOnUse">
<stop stop-color="#4064E2"/>
<stop offset="1" stop-color="#3556CA"/>
</linearGradient>
<radialGradient id="paint3_radial_293_9391" cx="0" cy="0" r="1" gradientUnits="userSpaceOnUse" gradientTransform="translate(84.3076 83.2862) rotate(57.6103) scale(41.8938 41.5848)">
<stop stop-color="white" stop-opacity="0.6"/>
<stop offset="1" stop-color="white" stop-opacity="0.2"/>
</radialGradient>
<radialGradient id="paint4_radial_293_9391" cx="0" cy="0" r="1" gradientUnits="userSpaceOnUse" gradientTransform="translate(190.088 41.5079) rotate(50.2328) scale(226.545 244.434)">
<stop stop-color="white" stop-opacity="0.6"/>
<stop offset="1" stop-color="white" stop-opacity="0.2"/>
</radialGradient>
<linearGradient id="paint5_linear_293_9391" x1="233.908" y1="126.549" x2="233.908" y2="138.992" gradientUnits="userSpaceOnUse">
<stop stop-color="#4064E2"/>
<stop offset="1" stop-color="#3556CA"/>
</linearGradient>
<radialGradient id="paint6_radial_293_9391" cx="0" cy="0" r="1" gradientUnits="userSpaceOnUse" gradientTransform="translate(227.394 125.807) rotate(34.3796) scale(25.9837 26.573)">
<stop stop-color="white" stop-opacity="0.6"/>
<stop offset="1" stop-color="white" stop-opacity="0.2"/>
</radialGradient>
<radialGradient id="paint7_radial_293_9391" cx="0" cy="0" r="1" gradientUnits="userSpaceOnUse" gradientTransform="translate(227.394 140.738) rotate(34.3796) scale(25.9837 26.573)">
<stop stop-color="white" stop-opacity="0.6"/>
<stop offset="1" stop-color="white" stop-opacity="0.2"/>
</radialGradient>
<radialGradient id="paint8_radial_293_9391" cx="0" cy="0" r="1" gradientUnits="userSpaceOnUse" gradientTransform="translate(144.02 88.7191) rotate(58.6589) scale(44.1812 43.0701)">
<stop stop-color="white" stop-opacity="0.6"/>
<stop offset="1" stop-color="white" stop-opacity="0.2"/>
</radialGradient>
</defs>
</svg>
